<svg id="svg" version="1.1" xmlns="http://www.w3.org/2000/svg" xmlns:xlink="http://www.w3.org/1999/xlink" width="400" height="400" viewBox="0, 0, 400,400"><g id="svgg"><path id="path0" d="M157.075 108.258 C 156.924 108.410,156.800 110.753,156.800 113.467 L 156.800 118.400 130.890 118.400 C 100.259 118.400,97.211 118.646,90.200 121.689 C 65.677 132.333,62.434 165.650,84.400 181.273 C 91.379 186.236,95.587 187.220,111.232 187.546 L 123.463 187.800 124.891 188.889 C 128.760 191.841,128.799 196.929,124.975 199.846 L 123.463 201.000 95.831 201.000 L 68.200 201.000 68.088 195.900 C 67.959 190.006,68.169 190.173,64.350 192.931 C 62.728 194.103,56.990 198.186,51.600 202.004 C 34.638 214.019,33.800 214.640,33.800 215.201 C 33.800 215.760,34.839 216.517,54.800 230.512 C 61.070 234.907,66.484 238.750,66.831 239.052 C 67.927 240.003,68.000 239.716,68.000 234.443 C 68.000 230.109,68.101 229.247,68.633 229.043 C 68.981 228.909,81.716 228.800,96.933 228.800 C 129.212 228.799,129.988 228.718,137.542 224.566 C 161.283 211.516,161.031 176.792,137.103 164.020 C 130.881 160.700,128.821 160.336,114.600 160.045 C 103.941 159.827,102.430 159.715,101.077 159.044 C 96.195 156.619,96.012 149.790,100.763 147.318 L 102.526 146.400 129.663 146.400 L 156.800 146.400 156.800 151.376 C 156.800 154.305,156.967 156.456,157.205 156.603 C 157.428 156.741,160.713 154.650,164.505 151.957 C 168.297 149.264,172.930 145.978,174.800 144.655 C 176.670 143.333,179.100 141.594,180.200 140.792 C 181.300 139.990,184.315 137.849,186.900 136.035 C 192.536 132.080,192.464 132.687,187.700 129.314 C 185.555 127.796,177.991 122.424,170.891 117.377 C 157.169 107.623,157.495 107.838,157.075 108.258 M107.465 131.215 C 107.781 132.197,108.188 133.360,108.370 133.800 C 109.383 136.253,109.600 136.894,109.600 137.442 C 109.600 137.775,109.420 137.936,109.200 137.800 C 108.980 137.664,108.800 137.223,108.800 136.819 C 108.800 136.416,108.519 135.978,108.175 135.846 C 107.831 135.714,107.673 135.405,107.825 135.160 C 108.114 134.692,107.324 131.756,106.679 130.900 C 106.112 130.148,105.799 130.287,105.320 131.500 C 104.963 132.404,104.878 132.455,104.843 131.789 C 104.704 129.143,106.661 128.715,107.465 131.215 M112.800 133.400 C 112.800 136.867,112.905 137.600,113.400 137.600 C 113.730 137.600,114.000 137.795,114.000 138.033 C 114.000 138.759,113.031 138.198,112.506 137.168 C 111.908 135.997,111.818 129.200,112.400 129.200 C 112.641 129.200,112.800 130.867,112.800 133.400 M116.800 133.367 C 116.800 136.326,116.945 137.592,117.300 137.735 C 117.616 137.862,117.558 137.948,117.143 137.968 C 116.781 137.986,116.376 137.715,116.243 137.367 C 115.830 136.291,115.966 129.200,116.400 129.200 C 116.641 129.200,116.800 130.856,116.800 133.367 M129.670 131.882 C 129.893 132.152,129.922 132.593,129.736 132.882 C 129.553 133.167,129.295 134.480,129.163 135.800 C 128.983 137.591,128.922 137.033,128.921 133.600 C 128.920 131.070,128.999 129.540,129.095 130.200 C 129.192 130.860,129.450 131.617,129.670 131.882 M125.129 132.015 C 123.505 132.394,123.578 137.600,125.208 137.600 C 125.643 137.600,126.000 137.780,126.000 138.000 C 126.000 138.220,125.775 138.397,125.500 138.394 C 124.289 138.379,123.851 137.593,123.680 135.132 C 123.584 133.739,123.313 132.361,123.078 132.070 C 122.418 131.249,123.477 130.823,124.871 131.349 C 126.020 131.783,126.029 131.804,125.129 132.015 M133.529 132.438 C 133.667 132.890,133.596 132.902,133.170 132.500 C 132.879 132.225,132.305 132.000,131.896 132.000 C 131.487 132.000,131.259 131.828,131.389 131.618 C 131.705 131.107,133.312 131.723,133.529 132.438 M152.368 132.347 C 152.348 132.761,152.263 132.817,152.135 132.500 C 152.024 132.225,151.363 131.997,150.667 131.994 C 149.835 131.990,149.581 131.873,149.926 131.654 C 150.746 131.134,152.404 131.604,152.368 132.347 M158.400 131.600 C 158.850 131.891,158.650 131.988,157.600 131.988 C 156.550 131.988,156.350 131.891,156.800 131.600 C 157.130 131.387,157.490 131.212,157.600 131.212 C 157.710 131.212,158.070 131.387,158.400 131.600 M137.600 135.024 C 137.600 136.741,137.431 138.000,137.200 138.000 C 136.966 138.000,136.800 136.659,136.800 134.776 C 136.800 132.729,136.946 131.643,137.200 131.800 C 137.420 131.936,137.600 133.387,137.600 135.024 M140.826 135.200 L 140.509 138.200 140.454 134.820 C 140.421 132.733,140.542 131.585,140.772 131.820 C 140.992 132.045,141.014 133.423,140.826 135.200 M145.600 135.224 C 145.600 136.808,145.428 138.000,145.200 138.000 C 144.969 138.000,144.800 136.725,144.800 134.976 C 144.800 133.063,144.947 132.044,145.200 132.200 C 145.420 132.336,145.600 133.697,145.600 135.224 M156.560 134.340 C 156.267 134.726,155.601 133.844,155.606 133.076 C 155.612 132.236,155.633 132.241,156.139 133.200 C 156.429 133.750,156.618 134.263,156.560 134.340 M104.252 135.805 C 103.922 136.135,103.534 136.777,103.390 137.233 C 103.245 137.688,103.047 137.981,102.950 137.883 C 102.853 137.786,103.060 136.828,103.410 135.753 C 104.418 132.658,104.547 132.474,104.706 133.903 C 104.794 134.697,104.617 135.440,104.252 135.805 M133.890 136.893 C 133.801 137.612,133.726 137.120,133.724 135.800 C 133.722 134.480,133.795 133.892,133.886 134.493 C 133.977 135.094,133.979 136.174,133.890 136.893 M150.780 135.234 C 151.766 135.268,151.760 135.281,150.616 135.622 C 149.786 135.870,149.340 135.830,149.122 135.488 C 148.637 134.724,148.747 134.187,149.280 134.720 C 149.544 134.984,150.219 135.215,150.780 135.234 M158.600 134.800 C 158.736 135.020,158.577 135.200,158.247 135.200 C 157.917 135.200,157.536 135.020,157.400 134.800 C 157.264 134.580,157.423 134.400,157.753 134.400 C 158.083 134.400,158.464 134.580,158.600 134.800 M160.000 136.401 C 160.000 137.919,157.605 138.877,156.264 137.896 C 155.680 137.469,155.851 137.414,157.387 137.536 C 159.186 137.679,159.200 137.670,159.200 136.417 C 159.200 135.676,159.366 135.255,159.600 135.400 C 159.820 135.536,160.000 135.986,160.000 136.401 M151.200 137.600 C 153.343 137.600,154.430 139.214,153.055 140.355 C 152.612 140.722,152.547 140.610,152.710 139.761 C 152.955 138.478,152.318 138.014,150.300 138.006 C 149.157 138.001,148.800 137.838,148.800 137.320 C 148.800 136.791,148.907 136.747,149.280 137.120 C 149.544 137.384,150.408 137.600,151.200 137.600 M148.772 140.524 C 148.787 140.702,148.620 140.736,148.400 140.600 C 148.180 140.464,148.013 139.958,148.028 139.476 C 148.056 138.604,148.682 139.485,148.772 140.524 M207.697 200.685 L 207.800 223.000 211.400 223.000 L 215.000 223.000 215.110 216.300 C 215.248 207.856,215.076 207.861,221.261 216.100 C 223.945 219.675,226.334 222.732,226.571 222.894 C 227.223 223.340,233.918 223.257,234.201 222.799 C 234.337 222.579,231.812 218.781,228.591 214.360 C 221.648 204.833,221.689 206.523,228.199 198.226 C 234.174 190.612,234.073 191.200,229.400 191.200 L 225.599 191.200 223.819 193.500 C 222.840 194.765,220.799 197.420,219.283 199.400 C 215.028 204.959,215.230 205.367,215.106 190.928 L 215.000 178.600 211.297 178.485 L 207.593 178.370 207.697 200.685 M180.800 180.559 C 173.138 181.771,169.428 185.578,169.457 192.200 C 169.488 199.239,172.513 202.089,182.637 204.616 C 190.520 206.585,192.240 207.866,191.872 211.494 C 191.201 218.092,180.824 218.738,174.760 212.560 C 172.579 210.337,172.576 210.338,170.300 213.154 C 167.980 216.025,167.972 216.247,170.100 218.373 C 177.388 225.652,194.173 225.108,198.301 217.460 C 203.225 208.336,198.709 200.460,187.138 197.992 C 181.149 196.715,180.436 196.516,179.397 195.835 C 176.169 193.720,176.406 189.192,179.818 187.767 C 183.232 186.340,190.910 187.509,192.749 189.735 C 193.821 191.033,198.000 187.544,198.000 185.351 C 198.000 182.327,187.724 179.464,180.800 180.559 M302.400 184.552 L 300.200 185.015 300.084 188.088 L 299.967 191.161 297.684 191.281 L 295.400 191.400 295.400 194.200 L 295.400 197.000 297.600 197.200 L 299.800 197.400 300.032 206.600 C 300.289 216.808,300.528 218.054,302.694 220.451 C 305.809 223.899,313.862 224.592,317.264 221.704 C 318.355 220.779,316.554 216.147,315.172 216.327 C 307.881 217.277,307.602 216.875,307.608 205.400 C 307.613 196.639,307.255 197.257,312.414 197.115 L 316.600 197.000 316.600 194.200 L 316.600 191.400 312.414 191.285 C 307.505 191.150,307.614 191.245,307.606 187.100 L 307.600 184.000 306.100 184.045 C 305.275 184.070,303.610 184.298,302.400 184.552 M247.124 191.155 C 244.934 191.617,240.751 193.789,239.463 195.134 L 238.334 196.313 239.824 198.556 C 241.533 201.131,241.647 201.169,243.342 199.738 C 248.213 195.625,256.000 195.760,256.000 199.958 C 256.000 202.475,254.874 203.187,248.963 204.406 C 239.225 206.414,235.704 210.690,238.061 217.640 C 240.301 224.245,250.593 225.750,255.100 220.133 C 256.301 218.635,257.600 218.659,257.600 220.179 C 257.600 222.282,263.451 223.997,266.574 222.810 C 268.408 222.113,267.886 217.200,265.979 217.200 C 263.744 217.200,263.600 216.674,263.598 208.471 C 263.594 196.808,262.807 194.183,258.672 192.055 C 256.594 190.986,250.264 190.492,247.124 191.155 M273.789 191.685 C 273.680 191.969,273.637 199.132,273.695 207.601 L 273.800 223.000 276.592 223.120 C 281.524 223.333,281.082 224.259,281.280 213.304 C 281.521 200.037,282.459 198.200,289.000 198.200 L 292.200 198.200 292.661 196.000 C 293.627 191.397,293.498 191.200,289.522 191.200 C 286.550 191.200,284.506 192.238,283.153 194.433 C 281.756 196.698,281.184 196.397,280.810 193.200 L 280.600 191.400 277.294 191.284 C 274.872 191.199,273.934 191.306,273.789 191.685 M256.209 208.028 C 257.499 212.094,254.723 217.219,250.899 217.831 C 244.498 218.854,242.590 210.821,248.851 209.212 C 249.813 208.965,251.590 208.434,252.800 208.033 C 255.721 207.063,255.903 207.063,256.209 208.028 M60.449 209.800 C 60.834 210.900,61.595 213.015,62.139 214.500 C 63.147 217.251,62.839 218.349,61.774 215.800 C 60.756 213.363,56.059 213.934,56.013 216.500 C 56.002 217.110,55.200 217.574,55.200 216.971 C 55.200 216.625,57.035 211.229,57.817 209.275 C 58.709 207.046,59.541 207.212,60.449 209.800 M115.188 216.794 C 115.512 216.993,115.632 217.301,115.456 217.478 C 114.549 218.385,114.002 216.147,114.074 211.824 L 114.148 207.400 114.374 211.916 C 114.542 215.275,114.751 216.524,115.188 216.794 M66.960 209.688 C 67.275 209.894,67.258 210.205,66.900 210.782 C 65.657 212.788,66.459 216.800,68.104 216.800 C 68.513 216.800,68.736 216.980,68.600 217.200 C 67.581 218.849,66.001 216.832,65.994 213.871 C 65.991 212.512,65.835 211.159,65.648 210.864 C 65.452 210.555,65.497 209.926,65.754 209.378 C 66.004 208.844,66.270 208.640,66.360 208.913 C 66.448 209.181,66.718 209.530,66.960 209.688 M57.822 210.985 C 57.013 213.558,57.186 214.000,59.000 214.000 C 60.744 214.000,61.019 213.492,60.378 211.457 C 59.337 208.151,58.748 208.043,57.822 210.985 M80.365 210.994 C 81.464 212.093,81.167 215.524,79.878 216.634 C 76.615 219.442,72.368 214.089,75.429 211.028 C 76.432 210.025,77.031 210.303,76.070 211.326 C 74.218 213.297,75.325 216.800,77.800 216.800 C 81.313 216.800,81.387 211.461,77.891 210.305 C 77.319 210.116,77.499 210.084,78.395 210.214 C 79.162 210.326,80.048 210.677,80.365 210.994 M88.826 210.414 C 89.504 210.777,89.592 211.236,89.534 214.114 L 89.468 217.400 89.234 214.319 C 88.992 211.131,88.756 210.611,87.400 210.285 C 86.710 210.119,86.700 210.086,87.326 210.046 C 87.726 210.021,88.401 210.186,88.826 210.414 M110.146 210.829 C 112.970 213.050,110.165 219.116,107.200 217.200 C 106.746 216.907,106.924 216.811,107.929 216.806 C 111.153 216.791,111.540 211.438,108.400 210.284 C 107.896 210.098,107.903 210.058,108.446 210.032 C 108.801 210.014,109.566 210.373,110.146 210.829 M84.967 211.333 C 84.948 211.700,84.903 213.170,84.867 214.600 C 84.766 218.526,84.000 217.789,84.000 213.767 C 84.000 211.198,84.126 210.375,84.500 210.500 C 84.775 210.592,84.985 210.967,84.967 211.333 M94.127 211.122 C 93.552 211.478,93.508 215.607,94.071 216.286 C 94.609 216.934,97.600 216.974,97.600 216.333 C 97.600 216.077,97.735 216.001,97.899 216.166 C 98.064 216.331,97.850 216.721,97.423 217.033 C 95.324 218.568,92.747 216.853,92.702 213.892 C 92.675 212.113,93.738 210.005,94.353 210.619 C 94.476 210.743,94.375 210.969,94.127 211.122 M97.944 210.932 C 98.617 211.743,98.672 213.286,98.036 213.510 C 97.633 213.653,97.550 213.507,97.745 212.998 C 97.900 212.594,97.751 211.880,97.400 211.344 C 96.749 210.350,97.186 210.020,97.944 210.932 M105.660 212.948 C 105.578 214.279,105.711 215.451,105.980 215.775 C 106.295 216.155,106.307 216.410,106.019 216.588 C 105.789 216.731,105.600 217.647,105.600 218.624 C 105.600 219.601,105.420 220.400,105.200 220.400 C 104.955 220.400,104.800 218.456,104.800 215.367 C 104.800 211.516,104.917 210.373,105.300 210.504 C 105.645 210.621,105.757 211.381,105.660 212.948 M122.674 210.900 C 122.939 211.311,123.554 217.200,123.333 217.200 C 122.369 217.200,122.029 216.557,122.253 215.158 C 122.482 213.724,122.428 213.600,121.576 213.600 L 120.649 213.600 121.525 212.784 C 122.527 211.850,122.590 211.550,121.920 210.880 C 121.574 210.534,121.568 210.400,121.896 210.400 C 122.147 210.400,122.498 210.625,122.674 210.900 M127.270 211.326 C 126.233 212.430,126.115 214.615,127.023 215.911 C 127.680 216.850,130.116 217.183,130.600 216.400 C 130.736 216.180,131.062 216.006,131.324 216.013 C 131.998 216.032,130.034 217.600,129.336 217.600 C 127.215 217.600,125.260 215.015,125.786 212.908 C 126.089 211.692,127.092 210.400,127.732 210.400 C 127.956 210.400,127.748 210.817,127.270 211.326 M135.598 211.003 C 133.317 213.751,136.653 218.787,139.120 216.320 C 139.406 216.034,139.600 216.007,139.600 216.252 C 139.600 217.602,136.650 217.857,135.000 216.650 C 133.529 215.573,134.106 210.400,135.698 210.400 C 135.920 210.400,135.876 210.668,135.598 211.003 M139.586 211.174 C 140.113 212.159,140.122 213.600,139.600 213.600 C 139.380 213.600,139.200 213.096,139.200 212.480 C 139.200 211.864,138.984 211.144,138.720 210.880 C 138.363 210.523,138.359 210.400,138.706 210.400 C 138.962 210.400,139.358 210.748,139.586 211.174 M118.853 214.367 C 117.876 214.971,118.490 216.573,119.800 216.835 C 120.778 217.030,120.870 217.131,120.297 217.381 C 119.375 217.784,117.600 216.624,117.600 215.619 C 117.600 214.782,118.752 213.419,119.136 213.803 C 119.268 213.935,119.141 214.189,118.853 214.367 M155.355 214.370 C 152.008 215.809,151.915 220.901,155.204 222.602 C 159.974 225.069,164.786 219.483,161.276 215.555 C 160.064 214.198,157.125 213.610,155.355 214.370 " stroke="none" fill="#f7f7f7" fill-rule="evenodd"></path><path id="path1" d="M0.000 200.000 L 0.000 400.000 200.000 400.000 L 400.000 400.000 400.000 200.000 L 400.000 0.000 200.000 0.000 L 0.000 0.000 0.000 200.000 M163.338 111.217 C 166.452 113.427,173.383 118.332,178.739 122.117 C 190.073 130.126,192.400 131.878,192.400 132.400 C 192.400 132.872,190.025 134.710,183.140 139.565 C 180.203 141.636,173.262 146.541,167.716 150.465 C 162.170 154.389,157.355 157.600,157.016 157.600 C 156.493 157.600,156.400 156.815,156.400 152.400 L 156.400 147.200 129.587 147.200 C 100.619 147.200,101.253 147.155,99.233 149.345 C 97.810 150.889,97.593 154.247,98.791 156.186 C 100.473 158.906,100.805 158.971,114.400 159.250 C 132.196 159.614,137.609 161.452,146.000 169.979 C 163.324 187.585,157.193 217.401,134.309 226.838 C 127.994 229.441,128.976 229.368,97.600 229.594 L 69.000 229.800 68.887 234.784 C 68.771 239.910,68.509 240.701,67.166 239.982 C 66.793 239.782,61.700 236.240,55.848 232.110 C 49.995 227.979,42.415 222.634,39.003 220.231 C 35.248 217.586,32.800 215.600,32.800 215.198 C 32.800 214.546,34.396 213.371,57.375 197.102 C 69.629 188.426,68.800 188.564,68.800 195.200 L 68.800 200.400 95.616 200.400 C 121.377 200.400,122.492 200.369,123.955 199.623 C 126.858 198.142,127.871 195.031,126.476 191.879 C 125.055 188.666,124.067 188.401,113.516 188.397 C 94.641 188.390,87.614 186.155,79.000 177.422 C 62.296 160.487,67.145 132.383,88.600 121.772 C 96.021 118.102,94.634 118.233,127.500 118.093 L 156.400 117.970 156.400 112.585 C 156.400 105.932,156.000 106.011,163.338 111.217 M215.506 189.900 C 215.587 199.196,215.726 201.994,216.106 201.976 C 216.378 201.963,218.490 199.453,220.800 196.400 C 223.110 193.346,225.360 190.750,225.800 190.629 C 227.351 190.206,233.030 190.390,233.520 190.880 C 234.237 191.597,234.376 191.369,228.800 198.615 C 225.940 202.332,223.600 205.600,223.600 205.877 C 223.600 206.154,226.210 209.965,229.400 214.346 C 236.591 224.220,236.533 223.604,230.267 223.594 C 225.740 223.586,226.424 224.077,221.067 216.992 C 215.318 209.389,215.644 209.384,215.510 217.070 L 215.400 223.400 211.200 223.400 L 207.000 223.400 206.889 201.400 C 206.755 174.666,206.218 177.544,211.311 177.686 L 215.400 177.800 215.506 189.900 M192.496 180.767 C 198.723 183.174,199.620 184.742,196.917 188.499 C 194.731 191.537,194.254 191.679,191.922 189.990 C 186.035 185.725,176.625 187.570,177.859 192.747 C 178.407 195.044,179.592 195.663,186.048 197.026 C 196.839 199.305,200.543 202.766,200.582 210.608 C 200.622 218.555,196.304 222.978,187.450 224.061 C 180.543 224.905,172.964 222.637,169.257 218.615 C 167.122 216.300,167.161 215.903,169.830 212.687 C 172.489 209.483,172.625 209.464,175.081 211.917 C 180.892 217.723,191.200 217.264,191.200 211.200 C 191.200 208.053,189.649 207.030,182.097 205.199 C 170.741 202.446,165.881 195.555,169.543 187.400 C 172.592 180.609,183.747 177.385,192.496 180.767 M308.316 186.900 L 308.431 190.400 312.536 190.400 C 317.545 190.400,317.600 190.443,317.600 194.433 C 317.600 198.080,317.746 197.986,312.100 197.995 L 308.400 198.000 308.400 205.781 C 308.400 216.092,309.033 217.238,313.925 215.785 C 316.535 215.010,316.572 215.035,317.643 218.361 C 318.669 221.547,318.564 222.041,316.666 222.942 C 311.701 225.298,304.536 224.223,301.865 220.721 C 299.829 218.052,299.600 216.657,299.600 206.950 L 299.600 198.000 297.774 198.000 C 294.731 198.000,294.400 197.630,294.400 194.235 C 294.400 190.804,294.633 190.501,297.410 190.326 L 299.400 190.200 299.521 187.600 C 299.588 186.170,299.819 184.820,300.036 184.600 C 300.541 184.087,304.975 183.261,306.800 183.340 L 308.200 183.400 308.316 186.900 M256.974 190.681 C 262.834 192.325,264.067 195.108,264.378 207.395 C 264.590 215.797,264.636 216.196,265.400 216.311 C 267.913 216.689,267.908 216.684,268.196 219.169 C 268.596 222.614,268.352 223.064,265.770 223.642 C 262.037 224.477,256.800 222.422,256.800 220.122 C 256.800 219.308,256.475 219.487,255.088 221.067 C 249.345 227.607,237.690 223.897,236.916 215.283 C 236.339 208.857,239.625 205.653,248.729 203.765 C 254.246 202.621,255.200 202.098,255.200 200.219 C 255.200 196.425,247.983 196.619,243.342 200.538 C 241.565 202.038,241.210 201.904,239.307 199.006 C 237.355 196.035,237.396 195.707,239.941 193.855 C 244.879 190.264,251.254 189.076,256.974 190.681 M280.700 190.652 C 281.460 190.856,281.600 191.166,281.600 192.647 C 281.600 194.736,281.732 194.780,283.109 193.143 C 285.141 190.729,289.480 189.703,292.785 190.855 C 294.233 191.360,294.278 192.242,293.096 197.000 L 292.600 199.000 289.360 198.859 C 283.056 198.585,282.000 200.756,282.000 213.993 C 282.000 224.215,282.294 223.600,277.400 223.600 C 275.102 223.600,273.583 223.423,273.280 223.120 C 272.464 222.304,272.605 191.852,273.429 191.029 C 274.077 190.380,278.776 190.137,280.700 190.652 M254.341 208.409 C 253.979 208.621,252.406 209.062,250.846 209.390 C 245.723 210.468,243.900 213.890,247.106 216.412 C 250.776 219.299,255.570 215.845,255.591 210.300 C 255.600 207.937,255.475 207.747,254.341 208.409 M160.273 213.977 C 166.508 216.808,161.794 226.139,155.487 223.452 C 152.337 222.109,151.194 218.943,152.816 216.056 C 154.316 213.388,157.202 212.583,160.273 213.977 " stroke="none" fill="#040404" fill-rule="evenodd"></path><path id="path2" d="M160.400 109.743 C 160.400 109.843,161.319 110.585,162.442 111.392 C 163.565 112.199,164.365 112.668,164.221 112.434 C 163.920 111.948,160.400 109.468,160.400 109.743 M166.400 114.072 C 167.329 114.992,171.396 117.841,171.103 117.367 C 170.960 117.136,169.708 116.166,168.322 115.212 C 166.935 114.258,166.070 113.745,166.400 114.072 M172.000 118.072 C 172.929 118.992,176.996 121.841,176.703 121.367 C 176.560 121.136,175.308 120.166,173.922 119.212 C 172.535 118.258,171.670 117.745,172.000 118.072 M99.200 118.802 C 98.600 118.995,99.240 119.037,100.800 118.906 C 102.230 118.786,103.475 118.623,103.567 118.544 C 103.889 118.265,100.188 118.484,99.200 118.802 M95.400 119.600 C 94.896 119.817,94.822 119.944,95.200 119.944 C 95.530 119.944,96.160 119.789,96.600 119.600 C 97.104 119.383,97.178 119.256,96.800 119.256 C 96.470 119.256,95.840 119.411,95.400 119.600 M86.400 123.236 C 85.736 123.779,85.669 123.915,86.200 123.640 C 87.505 122.966,88.228 122.412,87.800 122.415 C 87.580 122.417,86.950 122.786,86.400 123.236 M178.524 122.677 C 178.885 123.261,182.400 125.667,182.393 125.325 C 182.389 125.146,181.469 124.401,180.350 123.668 C 179.230 122.936,178.408 122.490,178.524 122.677 M83.585 125.229 L 82.200 126.458 83.700 125.381 C 85.026 124.430,85.457 124.000,85.085 124.000 C 85.022 124.000,84.347 124.553,83.585 125.229 M79.188 129.100 L 76.600 131.800 79.300 129.212 C 80.785 127.788,82.000 126.573,82.000 126.512 C 82.000 126.217,81.593 126.592,79.188 129.100 M185.200 127.343 C 185.200 127.443,186.119 128.185,187.242 128.992 C 188.365 129.799,189.165 130.268,189.021 130.034 C 188.720 129.548,185.200 127.068,185.200 127.343 M105.437 130.068 C 105.087 130.569,104.819 131.343,104.843 131.789 C 104.878 132.455,104.963 132.404,105.320 131.500 C 105.799 130.287,106.112 130.148,106.679 130.900 C 107.324 131.756,108.114 134.692,107.825 135.160 C 107.673 135.405,107.831 135.714,108.175 135.846 C 108.519 135.978,108.800 136.416,108.800 136.819 C 108.800 137.223,108.980 137.664,109.200 137.800 C 109.420 137.936,109.600 137.775,109.600 137.442 C 109.600 136.894,109.383 136.253,108.370 133.800 C 108.188 133.360,107.781 132.197,107.465 131.215 C 106.787 129.106,106.303 128.832,105.437 130.068 M112.006 132.700 C 112.012 136.149,112.498 137.971,113.500 138.302 C 113.775 138.392,114.000 138.272,114.000 138.033 C 114.000 137.795,113.730 137.600,113.400 137.600 C 112.905 137.600,112.800 136.867,112.800 133.400 C 112.800 130.867,112.641 129.200,112.400 129.200 C 112.163 129.200,112.002 130.629,112.006 132.700 M116.000 132.967 C 116.000 137.183,116.190 138.014,117.143 137.968 C 117.558 137.948,117.616 137.862,117.300 137.735 C 116.945 137.592,116.800 136.326,116.800 133.367 C 116.800 130.856,116.641 129.200,116.400 129.200 C 116.162 129.200,116.000 130.722,116.000 132.967 M128.921 133.600 C 128.922 137.033,128.983 137.591,129.163 135.800 C 129.295 134.480,129.553 133.167,129.736 132.882 C 129.922 132.593,129.893 132.152,129.670 131.882 C 129.450 131.617,129.192 130.860,129.095 130.200 C 128.999 129.540,128.920 131.070,128.921 133.600 M123.168 131.220 C 122.795 131.451,122.770 131.686,123.078 132.070 C 123.313 132.361,123.584 133.739,123.680 135.132 C 123.851 137.593,124.289 138.379,125.500 138.394 C 125.775 138.397,126.000 138.220,126.000 138.000 C 126.000 137.780,125.643 137.600,125.208 137.600 C 123.578 137.600,123.505 132.394,125.129 132.015 C 126.029 131.804,126.020 131.783,124.871 131.349 C 124.218 131.103,123.451 131.045,123.168 131.220 M131.389 131.618 C 131.259 131.828,131.487 132.000,131.896 132.000 C 132.305 132.000,132.879 132.225,133.170 132.500 C 133.596 132.902,133.667 132.890,133.529 132.438 C 133.312 131.723,131.705 131.107,131.389 131.618 M149.926 131.654 C 149.581 131.873,149.835 131.990,150.667 131.994 C 151.363 131.997,152.024 132.225,152.135 132.500 C 152.263 132.817,152.348 132.761,152.368 132.347 C 152.404 131.604,150.746 131.134,149.926 131.654 M156.800 131.600 C 156.350 131.891,156.550 131.988,157.600 131.988 C 158.650 131.988,158.850 131.891,158.400 131.600 C 158.070 131.387,157.710 131.212,157.600 131.212 C 157.490 131.212,157.130 131.387,156.800 131.600 M191.171 131.700 C 191.607 132.279,191.607 132.521,191.171 133.100 C 190.669 133.767,190.680 133.767,191.408 133.100 C 192.159 132.411,192.159 132.389,191.408 131.700 C 190.680 131.033,190.669 131.033,191.171 131.700 M136.800 134.776 C 136.800 136.659,136.966 138.000,137.200 138.000 C 137.431 138.000,137.600 136.741,137.600 135.024 C 137.600 133.387,137.420 131.936,137.200 131.800 C 136.946 131.643,136.800 132.729,136.800 134.776 M140.454 134.820 L 140.509 138.200 140.826 135.200 C 141.014 133.423,140.992 132.045,140.772 131.820 C 140.542 131.585,140.421 132.733,140.454 134.820 M144.800 134.976 C 144.800 136.725,144.969 138.000,145.200 138.000 C 145.428 138.000,145.600 136.808,145.600 135.224 C 145.600 133.697,145.420 132.336,145.200 132.200 C 144.947 132.044,144.800 133.063,144.800 134.976 M155.606 133.076 C 155.603 133.558,155.792 134.071,156.027 134.216 C 156.682 134.621,156.717 134.298,156.139 133.200 C 155.633 132.241,155.612 132.236,155.606 133.076 M104.304 133.200 C 103.670 134.676,102.790 137.723,102.950 137.883 C 103.047 137.981,103.245 137.688,103.390 137.233 C 103.534 136.777,103.922 136.135,104.252 135.805 C 104.617 135.440,104.794 134.697,104.706 133.903 C 104.614 133.075,104.467 132.819,104.304 133.200 M133.724 135.800 C 133.726 137.120,133.801 137.612,133.890 136.893 C 133.979 136.174,133.977 135.094,133.886 134.493 C 133.795 133.892,133.722 134.480,133.724 135.800 M188.000 135.242 C 184.860 137.535,184.531 138.050,187.522 135.990 C 189.666 134.514,190.806 133.548,190.324 133.618 C 190.256 133.628,189.210 134.359,188.000 135.242 M148.806 134.620 C 148.822 135.616,149.458 135.968,150.616 135.622 C 151.760 135.281,151.766 135.268,150.780 135.234 C 150.219 135.215,149.544 134.984,149.280 134.720 C 149.016 134.456,148.803 134.411,148.806 134.620 M157.400 134.800 C 157.536 135.020,157.917 135.200,158.247 135.200 C 158.577 135.200,158.736 135.020,158.600 134.800 C 158.464 134.580,158.083 134.400,157.753 134.400 C 157.423 134.400,157.264 134.580,157.400 134.800 M159.200 136.417 C 159.200 137.670,159.186 137.679,157.387 137.536 C 155.851 137.414,155.680 137.469,156.264 137.896 C 157.181 138.567,158.034 138.531,159.111 137.777 C 160.032 137.132,160.299 135.832,159.600 135.400 C 159.366 135.255,159.200 135.676,159.200 136.417 M148.800 137.320 C 148.800 137.838,149.157 138.001,150.300 138.006 C 152.318 138.014,152.955 138.478,152.710 139.761 C 152.547 140.610,152.612 140.722,153.055 140.355 C 154.430 139.214,153.343 137.600,151.200 137.600 C 150.408 137.600,149.544 137.384,149.280 137.120 C 148.907 136.747,148.800 136.791,148.800 137.320 M148.028 139.476 C 148.013 139.958,148.180 140.464,148.400 140.600 C 148.873 140.892,148.873 140.501,148.400 139.400 C 148.069 138.629,148.055 138.631,148.028 139.476 M180.785 140.432 L 179.400 141.663 180.688 140.813 C 181.830 140.059,182.693 139.200,182.308 139.200 C 182.232 139.200,181.547 139.754,180.785 140.432 M70.629 143.429 C 70.481 144.015,70.438 144.572,70.532 144.666 C 70.627 144.760,70.824 144.358,70.971 143.771 C 71.119 143.185,71.162 142.628,71.068 142.534 C 70.973 142.440,70.776 142.842,70.629 143.429 M175.000 144.432 C 172.630 146.224,172.327 146.702,174.480 145.254 C 175.513 144.559,176.469 143.812,176.603 143.595 C 176.974 142.994,176.739 143.117,175.000 144.432 M69.800 146.800 C 69.648 147.491,69.607 148.141,69.709 148.242 C 69.811 148.344,70.009 147.853,70.150 147.150 C 70.483 145.483,70.160 145.160,69.800 146.800 M100.924 147.230 C 100.003 147.686,99.013 148.351,98.724 148.707 C 98.121 149.451,98.878 149.124,100.027 148.144 C 100.371 147.850,101.361 147.350,102.227 147.033 C 103.092 146.716,103.530 146.444,103.200 146.429 C 102.870 146.413,101.846 146.774,100.924 147.230 M168.800 148.842 C 165.660 151.135,165.331 151.650,168.322 149.590 C 170.466 148.114,171.606 147.148,171.124 147.218 C 171.056 147.228,170.010 147.959,168.800 148.842 M97.301 153.000 C 97.305 153.880,97.387 154.193,97.483 153.695 C 97.579 153.198,97.575 152.478,97.475 152.095 C 97.375 151.713,97.296 152.120,97.301 153.000 M162.600 153.232 C 160.230 155.024,159.927 155.502,162.080 154.054 C 163.113 153.359,164.069 152.612,164.203 152.395 C 164.574 151.794,164.339 151.917,162.600 153.232 M69.680 157.800 C 69.680 158.240,69.824 159.050,70.000 159.600 C 70.254 160.392,70.320 160.433,70.320 159.800 C 70.320 159.360,70.176 158.550,70.000 158.000 C 69.746 157.208,69.680 157.167,69.680 157.800 M102.711 159.672 C 103.090 159.821,107.990 159.922,113.600 159.896 C 119.210 159.870,122.810 159.796,121.600 159.731 C 116.648 159.465,102.072 159.419,102.711 159.672 M126.400 160.400 C 126.950 160.576,127.760 160.720,128.200 160.720 C 128.833 160.720,128.792 160.654,128.000 160.400 C 127.450 160.224,126.640 160.080,126.200 160.080 C 125.567 160.080,125.608 160.146,126.400 160.400 M70.456 161.600 C 70.456 161.930,70.611 162.560,70.800 163.000 C 71.017 163.504,71.144 163.578,71.144 163.200 C 71.144 162.870,70.989 162.240,70.800 161.800 C 70.583 161.296,70.456 161.222,70.456 161.600 M138.000 164.420 C 139.387 165.361,140.178 165.635,139.200 164.836 C 138.650 164.386,138.020 164.017,137.800 164.015 C 137.580 164.013,137.670 164.196,138.000 164.420 M140.400 165.739 C 140.400 165.830,141.210 166.567,142.200 167.379 C 143.190 168.190,143.993 168.707,143.984 168.527 C 143.969 168.201,140.400 165.426,140.400 165.739 M73.645 169.835 C 73.957 170.713,77.009 175.193,77.297 175.197 C 77.461 175.198,76.766 173.985,75.754 172.500 C 73.815 169.657,73.391 169.121,73.645 169.835 M146.815 171.469 C 146.823 171.651,147.480 172.520,148.273 173.400 C 149.721 175.005,149.413 174.387,147.709 172.269 C 147.209 171.647,146.807 171.287,146.815 171.469 M149.960 175.800 C 150.634 177.105,151.188 177.828,151.185 177.400 C 151.183 177.180,150.814 176.550,150.364 176.000 C 149.821 175.336,149.685 175.269,149.960 175.800 M78.800 177.000 C 79.546 177.770,80.247 178.400,80.357 178.400 C 80.467 178.400,79.946 177.770,79.200 177.000 C 78.454 176.230,77.753 175.600,77.643 175.600 C 77.533 175.600,78.054 176.230,78.800 177.000 M207.467 178.267 C 207.096 178.637,207.129 223.200,207.500 223.200 C 207.665 223.200,207.752 213.108,207.693 200.772 L 207.587 178.345 211.356 178.472 C 213.430 178.543,215.042 178.465,214.939 178.300 C 214.709 177.929,207.835 177.898,207.467 178.267 M81.744 179.509 C 82.060 180.021,84.400 181.753,84.400 181.475 C 84.400 181.376,83.739 180.791,82.932 180.175 C 82.124 179.559,81.589 179.259,81.744 179.509 M179.400 180.408 C 178.892 180.631,179.476 180.674,181.000 180.524 C 182.320 180.395,183.475 180.224,183.567 180.144 C 183.921 179.837,180.157 180.075,179.400 180.408 M185.233 180.144 C 185.325 180.223,186.570 180.386,188.000 180.506 C 189.560 180.637,190.200 180.595,189.600 180.402 C 188.612 180.084,184.911 179.865,185.233 180.144 M197.151 184.080 C 197.715 184.721,198.001 185.419,197.855 185.800 C 197.712 186.172,197.775 186.339,198.005 186.197 C 198.691 185.773,198.437 184.972,197.300 183.970 L 196.200 183.000 197.151 184.080 M306.484 183.885 C 307.548 184.047,307.571 184.111,307.703 187.325 L 307.837 190.600 307.919 187.100 L 308.000 183.600 306.700 183.660 C 305.513 183.715,305.494 183.734,306.484 183.885 M301.600 184.400 C 300.256 184.831,301.708 184.831,303.400 184.400 C 304.478 184.126,304.498 184.094,303.600 184.087 C 303.050 184.083,302.150 184.224,301.600 184.400 M96.000 186.800 C 96.330 187.013,96.960 187.178,97.400 187.166 L 98.200 187.144 97.400 186.800 C 96.204 186.286,95.205 186.286,96.000 186.800 M154.662 187.800 C 154.796 188.680,154.972 189.475,155.053 189.567 C 155.356 189.910,155.129 187.768,154.781 187.000 C 154.529 186.442,154.493 186.685,154.662 187.800 M196.227 188.200 C 195.640 188.970,195.303 189.598,195.480 189.595 C 195.656 189.592,196.207 188.962,196.704 188.195 C 197.868 186.397,197.600 186.400,196.227 188.200 M101.200 187.664 C 102.190 187.816,107.410 187.927,112.800 187.910 C 118.190 187.894,122.150 187.824,121.600 187.756 C 119.475 187.493,99.499 187.403,101.200 187.664 M179.800 187.754 C 179.140 188.042,178.330 188.613,178.000 189.023 C 177.474 189.677,177.547 189.667,178.600 188.941 C 179.260 188.486,180.340 187.923,181.000 187.689 C 181.660 187.455,181.930 187.256,181.600 187.247 C 181.270 187.238,180.460 187.467,179.800 187.754 M186.833 187.344 C 186.925 187.423,187.540 187.608,188.200 187.756 C 189.076 187.952,189.238 187.915,188.800 187.618 C 188.260 187.253,186.432 186.998,186.833 187.344 M190.600 188.666 C 191.260 189.015,192.157 189.593,192.593 189.950 C 193.342 190.564,193.355 190.560,192.822 189.874 C 192.257 189.146,190.320 187.986,189.720 188.016 C 189.544 188.025,189.940 188.317,190.600 188.666 M168.968 190.631 C 168.820 191.418,168.861 192.813,169.060 193.731 C 169.384 195.236,169.419 195.095,169.410 192.300 C 169.399 188.802,169.347 188.608,168.968 190.631 M177.125 190.900 C 177.032 191.395,177.083 192.250,177.238 192.800 C 177.455 193.567,177.530 193.358,177.560 191.900 C 177.603 189.877,177.402 189.417,177.125 190.900 M67.016 190.774 C 66.862 191.023,67.004 191.097,67.367 190.957 C 67.889 190.757,67.992 191.456,68.088 195.862 L 68.200 201.000 95.300 201.004 L 122.400 201.008 95.412 200.901 L 68.424 200.794 68.312 195.730 C 68.206 190.958,67.819 189.475,67.016 190.774 M247.676 190.740 C 247.168 190.883,249.024 191.000,251.800 191.000 C 254.576 191.000,256.432 190.883,255.924 190.740 C 255.416 190.597,253.560 190.480,251.800 190.480 C 250.040 190.480,248.184 190.597,247.676 190.740 M288.707 191.090 C 289.426 191.179,290.506 191.177,291.107 191.086 C 291.708 190.995,291.120 190.922,289.800 190.924 C 288.480 190.926,287.988 191.001,288.707 191.090 M155.344 194.800 C 155.344 196.890,155.412 197.745,155.494 196.700 C 155.576 195.655,155.576 193.945,155.494 192.900 C 155.412 191.855,155.344 192.710,155.344 194.800 M280.786 193.092 C 281.213 196.419,281.745 196.716,283.162 194.419 C 283.690 193.561,284.718 192.539,285.446 192.147 C 286.173 191.756,286.695 191.362,286.605 191.272 C 286.217 190.884,283.561 192.967,282.720 194.320 L 281.800 195.800 281.600 193.631 C 281.490 192.438,281.207 191.399,280.970 191.321 C 280.682 191.227,280.622 191.810,280.786 193.092 M292.758 191.529 C 293.160 191.810,293.248 192.404,293.072 193.659 C 292.877 195.062,292.908 195.209,293.233 194.415 C 293.769 193.107,293.546 191.501,292.800 191.300 C 292.301 191.166,292.294 191.205,292.758 191.529 M295.067 191.467 C 294.705 191.828,294.738 196.485,295.106 197.058 C 295.268 197.310,296.427 197.580,297.681 197.658 C 298.936 197.736,299.836 197.676,299.681 197.524 C 299.527 197.372,298.500 197.192,297.400 197.124 L 295.400 197.000 295.400 194.099 C 295.400 192.504,295.385 191.199,295.367 191.199 C 295.348 191.200,295.213 191.320,295.067 191.467 M316.600 194.137 L 316.600 197.000 312.200 197.221 L 307.800 197.442 312.257 197.521 C 316.001 197.587,316.753 197.499,316.957 196.967 C 317.304 196.064,317.258 191.683,316.900 191.461 C 316.735 191.358,316.600 192.563,316.600 194.137 M63.705 192.925 C 62.993 193.406,62.408 193.944,62.405 194.120 C 62.402 194.297,63.030 193.960,63.800 193.373 C 64.570 192.786,65.200 192.236,65.200 192.153 C 65.200 191.927,65.119 191.969,63.705 192.925 M127.370 194.359 C 127.391 196.564,127.444 196.744,127.755 195.659 C 127.975 194.889,127.966 193.894,127.731 193.100 C 127.392 191.956,127.349 192.106,127.370 194.359 M259.200 192.111 C 259.200 192.187,259.785 192.678,260.500 193.201 C 261.304 193.790,261.584 193.887,261.233 193.455 C 260.700 192.799,259.200 191.807,259.200 192.111 M240.128 194.300 C 239.262 195.125,239.013 195.423,239.576 194.961 C 240.139 194.500,241.045 193.825,241.589 193.461 C 242.133 193.098,242.381 192.800,242.140 192.800 C 241.900 192.800,240.994 193.475,240.128 194.300 M221.800 195.600 C 220.784 196.920,220.043 198.000,220.153 198.000 C 220.263 198.000,221.184 196.920,222.200 195.600 C 223.216 194.280,223.957 193.200,223.847 193.200 C 223.737 193.200,222.816 194.280,221.800 195.600 M228.993 197.300 C 227.973 198.675,227.706 199.170,228.399 198.400 C 229.931 196.697,231.329 194.800,231.051 194.800 C 230.938 194.800,230.012 195.925,228.993 197.300 M57.257 197.576 C 56.078 198.428,54.908 199.354,54.657 199.632 C 54.155 200.189,58.243 197.391,59.186 196.533 C 60.258 195.557,59.425 196.008,57.257 197.576 M180.400 196.400 C 180.730 196.613,181.270 196.788,181.600 196.788 C 182.133 196.788,182.133 196.745,181.600 196.400 C 181.270 196.187,180.730 196.012,180.400 196.012 C 179.867 196.012,179.867 196.055,180.400 196.400 M292.446 197.080 C 292.421 197.564,292.085 198.144,291.700 198.368 C 291.315 198.592,291.203 198.781,291.451 198.788 C 292.163 198.807,292.884 197.709,292.679 196.919 C 292.530 196.343,292.484 196.374,292.446 197.080 M183.400 197.200 C 183.840 197.389,184.560 197.544,185.000 197.544 L 185.800 197.544 185.000 197.200 C 184.560 197.011,183.840 196.856,183.400 196.856 L 182.600 196.856 183.400 197.200 M247.800 197.219 C 247.242 197.471,247.485 197.507,248.600 197.338 C 249.480 197.204,250.275 197.028,250.367 196.947 C 250.710 196.644,248.568 196.871,247.800 197.219 M253.000 197.200 C 254.101 197.673,254.492 197.673,254.200 197.200 C 254.064 196.980,253.558 196.813,253.076 196.828 C 252.231 196.855,252.229 196.869,253.000 197.200 M125.826 198.700 C 124.962 199.805,124.893 199.990,125.563 199.404 C 126.365 198.704,127.423 197.200,127.114 197.200 C 127.051 197.200,126.472 197.875,125.826 198.700 M187.200 198.000 C 188.568 198.438,189.619 198.438,188.600 198.000 C 188.160 197.811,187.440 197.662,187.000 197.668 C 186.357 197.677,186.396 197.743,187.200 198.000 M245.500 198.229 C 244.005 199.040,244.096 199.378,245.600 198.600 C 246.260 198.259,246.800 197.894,246.800 197.790 C 246.800 197.532,246.757 197.547,245.500 198.229 M255.256 198.545 C 255.539 199.175,255.842 199.473,255.931 199.206 C 256.020 198.940,255.789 198.424,255.418 198.061 C 254.786 197.442,254.776 197.473,255.256 198.545 M263.513 205.823 C 263.576 210.210,263.682 214.340,263.749 215.000 C 263.817 215.660,263.879 212.600,263.889 208.200 C 263.898 203.800,263.792 199.670,263.653 199.023 C 263.514 198.375,263.451 201.435,263.513 205.823 M287.300 198.287 C 287.905 198.378,288.895 198.378,289.500 198.287 C 290.105 198.195,289.610 198.120,288.400 198.120 C 287.190 198.120,286.695 198.195,287.300 198.287 M307.767 205.600 C 307.767 209.890,307.826 211.645,307.898 209.500 C 307.970 207.355,307.970 203.845,307.898 201.700 C 307.826 199.555,307.767 201.310,307.767 205.600 M219.144 199.100 C 217.875 200.632,217.419 201.342,217.881 201.065 C 218.393 200.758,220.169 198.400,219.889 198.400 C 219.798 198.400,219.463 198.715,219.144 199.100 M171.806 199.961 C 172.676 201.013,175.906 203.203,176.578 203.195 C 176.810 203.193,176.190 202.730,175.200 202.167 C 174.210 201.604,172.863 200.661,172.206 200.072 C 171.164 199.136,171.113 199.122,171.806 199.961 M192.433 199.349 C 192.845 199.717,195.200 200.800,195.200 200.621 C 195.200 200.390,192.982 199.200,192.553 199.200 C 192.396 199.200,192.342 199.267,192.433 199.349 M242.978 200.025 C 242.555 200.492,241.921 200.768,241.515 200.662 C 241.121 200.559,240.900 200.638,241.023 200.837 C 241.414 201.471,242.231 201.232,243.200 200.200 C 243.717 199.650,244.046 199.200,243.932 199.200 C 243.817 199.200,243.388 199.571,242.978 200.025 M154.650 201.250 C 154.317 202.917,154.640 203.240,155.000 201.600 C 155.152 200.909,155.193 200.259,155.091 200.158 C 154.989 200.056,154.791 200.547,154.650 201.250 M51.000 202.032 C 48.627 203.826,48.308 204.332,50.533 202.772 C 52.214 201.594,53.129 200.775,52.724 200.811 C 52.656 200.817,51.880 201.367,51.000 202.032 M196.840 202.177 C 197.411 202.849,198.176 203.845,198.540 204.389 C 198.903 204.933,199.200 205.175,199.200 204.928 C 199.200 204.680,198.435 203.684,197.500 202.715 C 196.565 201.746,196.268 201.504,196.840 202.177 M216.983 202.028 C 216.837 202.263,216.332 202.612,215.859 202.803 C 215.273 203.039,215.203 203.157,215.638 203.175 C 215.989 203.189,216.602 202.840,217.000 202.400 C 217.398 201.960,217.617 201.600,217.486 201.600 C 217.354 201.600,217.128 201.793,216.983 202.028 M224.744 202.700 C 223.475 204.232,223.019 204.942,223.481 204.665 C 223.993 204.358,225.769 202.000,225.489 202.000 C 225.398 202.000,225.063 202.315,224.744 202.700 M251.400 203.600 C 250.896 203.817,250.822 203.944,251.200 203.944 C 251.530 203.944,252.160 203.789,252.600 203.600 C 253.104 203.383,253.178 203.256,252.800 203.256 C 252.470 203.256,251.840 203.411,251.400 203.600 M180.200 204.400 C 180.640 204.589,181.360 204.738,181.800 204.732 C 182.443 204.723,182.404 204.657,181.600 204.400 C 180.232 203.962,179.181 203.962,180.200 204.400 M247.400 204.419 C 246.842 204.671,247.085 204.707,248.200 204.538 C 249.080 204.404,249.875 204.228,249.967 204.147 C 250.310 203.844,248.168 204.071,247.400 204.419 M45.100 206.214 C 44.055 206.980,43.200 207.707,43.200 207.829 C 43.200 208.087,46.774 205.566,47.057 205.109 C 47.374 204.595,47.081 204.760,45.100 206.214 M183.800 205.200 C 184.240 205.389,184.870 205.544,185.200 205.544 C 185.578 205.544,185.504 205.417,185.000 205.200 C 184.560 205.011,183.930 204.856,183.600 204.856 C 183.222 204.856,183.296 204.983,183.800 205.200 M222.846 205.851 C 222.821 206.319,223.115 206.949,223.500 207.251 C 224.109 207.728,224.140 207.722,223.743 207.200 C 223.492 206.870,223.198 206.240,223.089 205.800 C 222.903 205.040,222.890 205.043,222.846 205.851 M188.800 206.511 C 188.800 206.587,189.385 207.078,190.100 207.601 C 190.904 208.190,191.184 208.287,190.833 207.855 C 190.300 207.199,188.800 206.207,188.800 206.511 M281.200 214.567 C 281.200 220.726,281.077 222.783,280.700 222.935 C 280.401 223.056,280.482 223.150,280.900 223.168 C 281.545 223.198,281.600 222.545,281.600 214.800 C 281.600 210.180,281.510 206.400,281.400 206.400 C 281.290 206.400,281.200 210.075,281.200 214.567 M239.320 208.100 C 238.436 209.070,237.590 210.547,237.616 211.074 C 237.625 211.253,237.917 210.860,238.265 210.200 C 238.613 209.540,239.267 208.595,239.718 208.100 C 240.170 207.605,240.449 207.200,240.339 207.200 C 240.229 207.200,239.771 207.605,239.320 208.100 M57.817 209.275 C 57.035 211.229,55.200 216.625,55.200 216.971 C 55.200 217.574,56.002 217.110,56.013 216.500 C 56.059 213.934,60.756 213.363,61.774 215.800 C 62.839 218.349,63.147 217.251,62.139 214.500 C 61.595 213.015,60.834 210.900,60.449 209.800 C 59.541 207.212,58.709 207.046,57.817 209.275 M114.074 211.824 C 114.002 216.147,114.549 218.385,115.456 217.478 C 115.632 217.301,115.512 216.993,115.188 216.794 C 114.751 216.524,114.542 215.275,114.374 211.916 L 114.148 207.400 114.074 211.824 M225.216 209.763 C 225.968 210.809,226.756 211.773,226.967 211.903 C 227.178 212.033,226.735 211.284,225.984 210.237 C 225.232 209.191,224.444 208.227,224.233 208.097 C 224.022 207.967,224.465 208.716,225.216 209.763 M256.109 209.600 C 256.109 210.590,256.187 210.995,256.282 210.500 C 256.378 210.005,256.378 209.195,256.282 208.700 C 256.187 208.205,256.109 208.610,256.109 209.600 M65.754 209.378 C 65.497 209.926,65.452 210.555,65.648 210.864 C 65.835 211.159,65.991 212.512,65.994 213.871 C 66.001 216.832,67.581 218.849,68.600 217.200 C 68.736 216.980,68.513 216.800,68.104 216.800 C 66.459 216.800,65.657 212.788,66.900 210.782 C 67.258 210.205,67.275 209.894,66.960 209.688 C 66.718 209.530,66.448 209.181,66.360 208.913 C 66.270 208.640,66.004 208.844,65.754 209.378 M59.479 209.300 C 61.208 211.594,60.963 214.000,59.000 214.000 C 57.186 214.000,57.013 213.558,57.822 210.985 C 58.529 208.738,58.827 208.435,59.479 209.300 M191.386 211.266 C 191.377 212.621,191.495 213.339,191.657 212.926 C 192.039 211.958,192.060 209.913,191.694 209.340 C 191.532 209.087,191.393 209.954,191.386 211.266 M248.600 209.200 C 248.096 209.417,248.022 209.544,248.400 209.544 C 248.730 209.544,249.360 209.389,249.800 209.200 C 250.304 208.983,250.378 208.856,250.000 208.856 C 249.670 208.856,249.040 209.011,248.600 209.200 M200.109 210.800 C 200.109 211.790,200.187 212.195,200.282 211.700 C 200.378 211.205,200.378 210.395,200.282 209.900 C 200.187 209.405,200.109 209.810,200.109 210.800 M38.300 211.014 C 37.255 211.780,36.400 212.496,36.400 212.603 C 36.400 212.711,37.300 212.152,38.400 211.362 C 40.109 210.134,40.723 209.568,40.300 209.610 C 40.245 209.615,39.345 210.247,38.300 211.014 M215.900 210.012 C 216.395 210.211,216.800 210.560,216.800 210.787 C 216.800 211.014,217.008 211.200,217.262 211.200 C 217.524 211.200,217.411 210.854,217.000 210.400 C 216.602 209.960,215.989 209.611,215.638 209.625 C 215.223 209.642,215.314 209.777,215.900 210.012 M77.891 210.305 C 81.387 211.461,81.313 216.800,77.800 216.800 C 75.325 216.800,74.218 213.297,76.070 211.326 C 77.031 210.303,76.432 210.025,75.429 211.028 C 73.390 213.068,75.050 217.600,77.836 217.600 C 81.773 217.600,82.288 210.783,78.395 210.214 C 77.499 210.084,77.319 210.116,77.891 210.305 M87.400 210.285 C 88.756 210.611,88.992 211.131,89.234 214.319 L 89.468 217.400 89.534 214.114 C 89.604 210.631,89.221 209.925,87.326 210.046 C 86.700 210.086,86.710 210.119,87.400 210.285 M108.400 210.284 C 111.540 211.438,111.153 216.791,107.929 216.806 C 106.924 216.811,106.746 216.907,107.200 217.200 C 110.165 219.116,112.970 213.050,110.146 210.829 C 109.566 210.373,108.801 210.014,108.446 210.032 C 107.903 210.058,107.896 210.098,108.400 210.284 M151.152 210.900 C 150.890 211.395,150.415 212.250,150.096 212.800 C 149.539 213.759,149.543 213.767,150.188 213.000 C 150.986 212.052,152.105 210.000,151.824 210.000 C 151.716 210.000,151.414 210.405,151.152 210.900 M84.000 213.767 C 84.000 217.789,84.766 218.526,84.867 214.600 C 84.903 213.170,84.948 211.700,84.967 211.333 C 84.985 210.967,84.775 210.592,84.500 210.500 C 84.126 210.375,84.000 211.198,84.000 213.767 M93.401 211.199 C 91.566 213.226,93.169 217.600,95.746 217.600 C 96.815 217.600,98.327 216.594,97.899 216.166 C 97.735 216.001,97.600 216.077,97.600 216.333 C 97.600 216.974,94.609 216.934,94.071 216.286 C 93.508 215.607,93.552 211.478,94.127 211.122 C 94.375 210.969,94.476 210.743,94.353 210.619 C 94.229 210.496,93.801 210.757,93.401 211.199 M97.400 211.344 C 97.751 211.880,97.900 212.594,97.745 212.998 C 97.550 213.507,97.633 213.653,98.036 213.510 C 98.672 213.286,98.617 211.743,97.944 210.932 C 97.186 210.020,96.749 210.350,97.400 211.344 M104.800 215.367 C 104.800 218.456,104.955 220.400,105.200 220.400 C 105.420 220.400,105.600 219.601,105.600 218.624 C 105.600 217.647,105.789 216.731,106.019 216.588 C 106.307 216.410,106.295 216.155,105.980 215.775 C 105.711 215.451,105.578 214.279,105.660 212.948 C 105.757 211.381,105.645 210.621,105.300 210.504 C 104.917 210.373,104.800 211.516,104.800 215.367 M121.920 210.880 C 122.590 211.550,122.527 211.850,121.525 212.784 L 120.649 213.600 121.576 213.600 C 122.428 213.600,122.482 213.724,122.253 215.158 C 122.029 216.557,122.369 217.200,123.333 217.200 C 123.370 217.200,123.309 215.895,123.198 214.300 C 122.990 211.311,122.686 210.400,121.896 210.400 C 121.568 210.400,121.574 210.534,121.920 210.880 M126.693 211.100 C 123.911 214.188,127.724 219.422,130.856 216.813 C 131.375 216.381,131.586 216.021,131.324 216.013 C 131.062 216.006,130.736 216.180,130.600 216.400 C 130.116 217.183,127.680 216.850,127.023 215.911 C 126.115 214.615,126.233 212.430,127.270 211.326 C 127.748 210.817,127.956 210.400,127.732 210.400 C 127.507 210.400,127.040 210.715,126.693 211.100 M134.749 211.061 C 133.857 212.136,134.028 215.938,135.000 216.650 C 136.650 217.857,139.600 217.602,139.600 216.252 C 139.600 216.007,139.406 216.034,139.120 216.320 C 136.653 218.787,133.317 213.751,135.598 211.003 C 135.876 210.668,135.920 210.400,135.698 210.400 C 135.478 210.400,135.051 210.698,134.749 211.061 M138.720 210.880 C 138.984 211.144,139.200 211.864,139.200 212.480 C 139.200 213.096,139.380 213.600,139.600 213.600 C 140.122 213.600,140.113 212.159,139.586 211.174 C 139.358 210.748,138.962 210.400,138.706 210.400 C 138.359 210.400,138.363 210.523,138.720 210.880 M170.838 212.100 L 169.542 213.800 170.913 212.300 C 172.636 210.416,172.445 210.385,175.269 213.000 C 176.576 214.210,177.842 215.200,178.083 215.200 C 178.323 215.200,177.812 214.687,176.946 214.060 C 176.080 213.432,174.894 212.352,174.311 211.660 C 172.916 210.001,172.387 210.068,170.838 212.100 M218.496 212.995 C 218.993 213.762,219.544 214.392,219.720 214.395 C 219.897 214.398,219.560 213.770,218.973 213.000 C 217.600 211.200,217.332 211.197,218.496 212.995 M245.274 213.326 C 245.190 215.521,245.630 216.578,246.909 217.250 C 247.684 217.657,247.659 217.575,246.720 216.624 C 245.889 215.783,245.606 215.053,245.494 213.465 L 245.348 211.400 245.274 213.326 M237.314 214.200 C 237.317 215.300,237.395 215.703,237.487 215.095 C 237.579 214.486,237.577 213.586,237.482 213.095 C 237.387 212.603,237.311 213.100,237.314 214.200 M255.632 213.244 C 255.614 213.598,255.128 214.584,254.552 215.433 C 253.975 216.283,253.807 216.726,254.178 216.418 C 255.088 215.663,256.094 213.657,255.856 213.073 C 255.745 212.801,255.650 212.874,255.632 213.244 M33.900 214.157 C 32.947 214.880,33.021 215.698,34.100 216.360 C 34.997 216.911,34.997 216.910,34.238 216.057 C 33.502 215.229,33.501 215.173,34.200 214.400 C 35.030 213.482,34.913 213.388,33.900 214.157 M118.248 214.210 C 116.874 215.584,118.533 218.151,120.297 217.381 C 120.870 217.131,120.778 217.030,119.800 216.835 C 118.490 216.573,117.876 214.971,118.853 214.367 C 119.141 214.189,119.268 213.935,119.136 213.803 C 119.004 213.670,118.604 213.853,118.248 214.210 M155.738 213.906 C 155.484 214.068,156.322 214.200,157.600 214.200 C 158.878 214.200,159.716 214.068,159.462 213.906 C 159.208 213.744,158.370 213.612,157.600 213.612 C 156.830 213.612,155.992 213.744,155.738 213.906 M199.429 214.629 C 199.281 215.215,199.238 215.772,199.332 215.866 C 199.427 215.960,199.624 215.558,199.771 214.971 C 199.919 214.385,199.962 213.828,199.868 213.734 C 199.773 213.640,199.576 214.042,199.429 214.629 M228.975 214.932 C 229.591 215.739,230.176 216.400,230.275 216.400 C 230.553 216.400,228.821 214.060,228.309 213.744 C 228.059 213.589,228.359 214.124,228.975 214.932 M148.227 215.400 C 147.640 216.170,147.303 216.798,147.480 216.795 C 147.656 216.792,148.207 216.162,148.704 215.395 C 149.868 213.597,149.600 213.600,148.227 215.400 M168.662 214.731 C 167.085 216.474,172.837 222.565,175.887 222.381 C 176.059 222.371,175.254 221.872,174.098 221.273 C 169.884 219.091,167.693 216.244,169.062 214.731 C 169.426 214.329,169.634 214.000,169.524 214.000 C 169.414 214.000,169.026 214.329,168.662 214.731 M189.800 215.050 C 189.081 215.662,188.934 215.905,189.433 215.657 C 190.166 215.293,191.541 213.976,191.149 214.014 C 191.067 214.022,190.460 214.488,189.800 215.050 M308.014 214.318 C 308.006 214.603,308.442 215.278,308.982 215.818 C 309.522 216.358,310.197 216.794,310.482 216.786 C 310.767 216.778,310.570 216.533,310.044 216.242 C 309.518 215.950,308.850 215.282,308.558 214.756 C 308.267 214.230,308.022 214.033,308.014 214.318 M153.601 215.398 C 153.086 215.948,152.739 216.464,152.832 216.546 C 152.924 216.628,153.419 216.178,153.930 215.547 C 155.076 214.135,154.874 214.044,153.601 215.398 M161.234 215.447 C 161.765 216.133,162.280 216.623,162.379 216.535 C 162.477 216.447,162.043 215.886,161.413 215.288 L 160.269 214.200 161.234 215.447 M220.791 215.988 C 221.257 216.641,221.842 217.302,222.091 217.456 C 222.341 217.611,222.041 217.076,221.425 216.268 C 220.088 214.515,219.584 214.292,220.791 215.988 M300.068 215.400 C 300.062 215.840,300.211 216.560,300.400 217.000 C 300.838 218.019,300.838 216.968,300.400 215.600 C 300.143 214.796,300.077 214.757,300.068 215.400 M181.676 216.460 C 182.905 216.806,186.824 216.814,187.683 216.472 C 188.058 216.322,186.652 216.200,184.559 216.200 C 182.465 216.200,181.168 216.317,181.676 216.460 M198.221 217.560 C 197.891 218.198,196.864 219.368,195.938 220.160 C 195.013 220.952,194.378 221.600,194.527 221.600 C 195.069 221.600,198.067 218.630,198.636 217.530 C 198.958 216.909,199.131 216.400,199.021 216.400 C 198.911 216.400,198.551 216.922,198.221 217.560 M231.616 218.563 C 232.368 219.609,233.156 220.573,233.367 220.703 C 233.578 220.833,233.135 220.084,232.384 219.037 C 231.632 217.991,230.844 217.027,230.633 216.897 C 230.422 216.767,230.865 217.516,231.616 218.563 M265.854 217.086 C 267.784 217.329,268.487 222.069,266.700 222.788 C 266.091 223.032,266.010 223.157,266.451 223.175 C 267.656 223.222,268.124 222.121,267.885 219.803 C 267.599 217.033,267.430 216.786,265.876 216.864 L 264.600 216.928 265.854 217.086 M162.501 218.600 C 162.505 219.480,162.587 219.793,162.683 219.295 C 162.779 218.798,162.775 218.078,162.675 217.695 C 162.575 217.313,162.496 217.720,162.501 218.600 M249.105 217.883 C 249.602 217.979,250.322 217.975,250.705 217.875 C 251.087 217.775,250.680 217.696,249.800 217.701 C 248.920 217.705,248.607 217.787,249.105 217.883 M223.191 219.188 C 223.657 219.841,224.242 220.502,224.491 220.656 C 224.741 220.811,224.441 220.276,223.825 219.468 C 222.488 217.715,221.984 217.492,223.191 219.188 M37.743 218.708 C 37.912 218.981,39.163 219.947,40.525 220.856 C 43.413 222.783,42.796 222.047,39.618 219.773 C 38.418 218.914,37.574 218.435,37.743 218.708 M255.549 219.500 C 255.049 220.137,255.064 220.150,255.713 219.641 C 256.335 219.152,256.498 219.177,257.000 219.841 C 257.316 220.258,257.580 220.411,257.587 220.180 C 257.624 218.964,256.312 218.527,255.549 219.500 M302.141 220.437 C 302.463 220.897,303.148 221.555,303.663 221.900 C 304.282 222.314,304.132 222.030,303.222 221.063 C 301.677 219.424,301.263 219.184,302.141 220.437 M142.000 221.675 L 140.200 223.285 142.000 221.965 C 142.990 221.239,143.875 220.590,143.967 220.523 C 144.058 220.455,144.058 220.325,143.966 220.233 C 143.874 220.141,142.989 220.790,142.000 221.675 M317.717 220.400 C 317.815 220.730,317.621 221.315,317.286 221.700 C 316.950 222.085,316.841 222.400,317.042 222.400 C 317.725 222.400,318.353 220.966,317.933 220.364 C 317.602 219.891,317.568 219.896,317.717 220.400 M152.812 220.664 C 152.797 221.226,155.072 223.201,155.731 223.199 C 155.989 223.198,155.631 222.850,154.935 222.426 C 154.239 222.002,153.480 221.327,153.247 220.927 C 153.015 220.527,152.819 220.409,152.812 220.664 M161.863 220.980 C 161.733 221.319,161.036 221.956,160.313 222.396 C 159.591 222.837,159.281 223.198,159.625 223.199 C 160.325 223.200,162.666 220.932,162.320 220.587 C 162.198 220.465,161.993 220.642,161.863 220.980 M254.233 221.163 C 253.853 221.583,253.009 222.148,252.358 222.417 C 251.707 222.687,251.253 222.987,251.350 223.083 C 251.631 223.364,253.732 222.160,254.563 221.241 C 254.982 220.778,255.234 220.400,255.124 220.400 C 255.014 220.400,254.613 220.744,254.233 221.163 M225.437 222.200 C 225.797 222.750,226.250 223.200,226.443 223.200 C 226.637 223.200,226.403 222.750,225.925 222.200 C 225.447 221.650,224.994 221.200,224.919 221.200 C 224.843 221.200,225.076 221.650,225.437 222.200 M43.297 222.633 C 43.440 222.864,44.692 223.834,46.078 224.788 C 47.465 225.742,48.330 226.255,48.000 225.928 C 47.071 225.008,43.004 222.159,43.297 222.633 M138.600 224.000 C 137.940 224.437,137.580 224.792,137.800 224.788 C 138.201 224.782,140.376 223.223,140.000 223.212 C 139.890 223.208,139.260 223.563,138.600 224.000 M181.023 223.653 C 181.670 223.792,183.370 223.905,184.800 223.905 C 186.230 223.905,187.930 223.792,188.577 223.653 C 189.225 223.514,187.525 223.400,184.800 223.400 C 182.075 223.400,180.375 223.514,181.023 223.653 M244.827 223.648 C 246.098 224.004,248.817 224.017,249.683 223.672 C 250.059 223.522,248.901 223.395,247.110 223.388 C 245.296 223.382,244.285 223.497,244.827 223.648 M307.915 223.672 C 308.774 224.013,311.897 224.006,313.124 223.660 C 313.632 223.517,312.513 223.400,310.639 223.400 C 308.764 223.400,307.538 223.522,307.915 223.672 M51.297 228.233 C 51.440 228.464,52.692 229.434,54.078 230.388 C 55.465 231.342,56.330 231.855,56.000 231.528 C 55.071 230.608,51.004 227.759,51.297 228.233 M126.400 228.400 C 125.596 228.657,125.557 228.723,126.200 228.732 C 126.640 228.738,127.360 228.589,127.800 228.400 C 128.819 227.962,127.768 227.962,126.400 228.400 M68.500 229.065 C 68.136 229.212,68.000 230.674,68.000 234.433 C 68.000 237.275,67.898 239.600,67.773 239.600 C 67.649 239.600,66.884 239.128,66.073 238.550 L 64.600 237.501 66.000 238.739 C 68.035 240.539,68.179 240.289,68.400 234.568 L 68.600 229.400 96.200 229.196 L 123.800 228.992 96.400 228.927 C 81.330 228.892,68.775 228.954,68.500 229.065 M59.343 233.908 C 59.512 234.181,60.763 235.147,62.125 236.056 C 65.013 237.983,64.396 237.247,61.218 234.973 C 60.018 234.114,59.174 233.635,59.343 233.908 " stroke="none" fill="#848484" fill-rule="evenodd"></path><path id="path3" d="M156.487 112.497 L 156.400 117.995 128.300 118.100 L 100.200 118.205 128.313 118.303 C 151.111 118.382,156.463 118.301,156.625 117.879 C 156.735 117.592,156.769 115.027,156.699 112.179 L 156.574 107.000 156.487 112.497 M160.144 109.109 C 160.460 109.621,162.800 111.353,162.800 111.075 C 162.800 110.976,162.139 110.391,161.332 109.775 C 160.524 109.159,159.989 108.859,160.144 109.109 M165.798 113.196 C 166.092 113.672,170.800 116.919,170.800 116.646 C 170.800 116.545,169.618 115.635,168.173 114.625 C 166.728 113.615,165.659 112.972,165.798 113.196 M171.297 117.033 C 171.440 117.264,172.692 118.234,174.078 119.188 C 175.465 120.142,176.330 120.655,176.000 120.328 C 175.071 119.408,171.004 116.559,171.297 117.033 M97.000 118.800 C 95.922 119.074,95.902 119.106,96.800 119.113 C 97.350 119.117,98.250 118.976,98.800 118.800 C 100.144 118.369,98.692 118.369,97.000 118.800 M93.800 119.600 C 93.296 119.817,93.222 119.944,93.600 119.944 C 93.930 119.944,94.560 119.789,95.000 119.600 C 95.504 119.383,95.578 119.256,95.200 119.256 C 94.870 119.256,94.240 119.411,93.800 119.600 M178.179 121.966 C 178.480 122.452,182.000 124.932,182.000 124.657 C 182.000 124.557,181.081 123.815,179.958 123.008 C 178.835 122.201,178.035 121.732,178.179 121.966 M84.895 123.811 C 83.743 124.586,82.800 125.308,82.800 125.415 C 82.800 125.521,83.790 124.951,85.000 124.147 C 86.922 122.871,87.487 122.400,87.095 122.400 C 87.037 122.400,86.047 123.035,84.895 123.811 M80.338 127.315 C 79.314 128.242,77.900 129.720,77.196 130.600 L 75.916 132.200 77.534 130.476 C 78.424 129.528,79.928 128.050,80.876 127.192 C 81.824 126.335,82.510 125.632,82.400 125.632 C 82.290 125.631,81.362 126.389,80.338 127.315 M184.944 126.709 C 185.260 127.221,187.600 128.953,187.600 128.675 C 187.600 128.576,186.939 127.991,186.132 127.375 C 185.324 126.759,184.789 126.459,184.944 126.709 M191.181 131.300 L 192.139 132.400 191.181 133.500 L 190.223 134.600 191.402 133.500 L 192.582 132.400 191.402 131.300 L 190.223 130.200 191.181 131.300 M73.400 136.000 C 73.059 136.660,72.869 137.200,72.979 137.200 C 73.089 137.200,73.459 136.660,73.800 136.000 C 74.141 135.340,74.331 134.800,74.221 134.800 C 74.111 134.800,73.741 135.340,73.400 136.000 M185.985 137.229 L 184.600 138.458 186.100 137.381 C 187.426 136.430,187.857 136.000,187.485 136.000 C 187.422 136.000,186.747 136.553,185.985 137.229 M180.600 141.035 L 179.400 142.066 180.700 141.206 C 181.415 140.733,182.000 140.268,182.000 140.173 C 182.000 139.873,181.831 139.978,180.600 141.035 M69.850 144.850 C 69.517 146.517,69.840 146.840,70.200 145.200 C 70.352 144.509,70.393 143.859,70.291 143.758 C 70.189 143.656,69.991 144.147,69.850 144.850 M174.057 145.576 C 172.878 146.428,171.708 147.354,171.457 147.632 C 170.955 148.189,175.043 145.391,175.986 144.533 C 177.058 143.557,176.225 144.008,174.057 145.576 M129.688 147.099 L 156.377 147.206 156.506 152.303 L 156.635 157.400 156.617 152.200 L 156.600 147.000 129.800 146.996 L 103.000 146.992 129.688 147.099 M69.301 148.600 C 69.305 149.480,69.387 149.793,69.483 149.295 C 69.579 148.798,69.575 148.078,69.475 147.695 C 69.375 147.313,69.296 147.720,69.301 148.600 M168.900 149.240 C 167.965 149.902,167.200 150.533,167.200 150.641 C 167.200 150.750,168.010 150.281,169.000 149.600 C 169.990 148.919,170.800 148.280,170.800 148.181 C 170.800 147.905,170.724 147.948,168.900 149.240 M68.920 152.400 C 68.920 153.610,68.995 154.105,69.087 153.500 C 69.178 152.895,69.178 151.905,69.087 151.300 C 68.995 150.695,68.920 151.190,68.920 152.400 M97.843 151.033 C 97.499 151.930,97.541 155.117,97.900 155.337 C 98.065 155.438,98.200 154.368,98.200 152.960 C 98.200 150.151,98.194 150.118,97.843 151.033 M161.400 154.635 L 160.200 155.666 161.500 154.806 C 162.215 154.333,162.800 153.868,162.800 153.773 C 162.800 153.473,162.631 153.578,161.400 154.635 M69.314 157.000 C 69.317 158.100,69.395 158.503,69.487 157.895 C 69.579 157.286,69.577 156.386,69.482 155.895 C 69.387 155.403,69.311 155.900,69.314 157.000 M108.876 159.499 C 111.668 159.567,116.348 159.568,119.276 159.499 C 122.204 159.431,119.920 159.375,114.200 159.374 C 108.480 159.374,106.084 159.430,108.876 159.499 M69.668 160.000 C 69.688 161.039,70.318 162.746,70.332 161.800 C 70.338 161.360,70.189 160.640,70.000 160.200 C 69.789 159.710,69.661 159.632,69.668 160.000 M125.300 159.876 C 125.685 159.976,126.315 159.976,126.700 159.876 C 127.085 159.775,126.770 159.693,126.000 159.693 C 125.230 159.693,124.915 159.775,125.300 159.876 M131.233 160.960 C 131.578 161.291,136.541 163.192,136.685 163.049 C 136.767 162.966,135.655 162.427,134.213 161.849 C 131.739 160.859,130.852 160.594,131.233 160.960 M137.200 163.318 C 137.200 163.408,138.460 164.320,140.000 165.345 C 141.540 166.369,142.800 167.122,142.800 167.018 C 142.800 166.915,141.765 166.134,140.500 165.285 C 137.699 163.402,137.200 163.105,137.200 163.318 M72.000 167.353 C 72.000 167.782,73.190 170.000,73.421 170.000 C 73.531 170.000,73.323 169.415,72.959 168.700 C 72.217 167.240,72.000 166.936,72.000 167.353 M143.243 167.700 C 143.339 167.755,144.494 168.790,145.809 170.000 L 148.200 172.200 146.014 169.900 C 144.811 168.635,143.656 167.600,143.447 167.600 C 143.238 167.600,143.146 167.645,143.243 167.700 M74.267 171.606 C 74.659 172.270,75.398 173.305,75.910 173.906 C 76.421 174.508,76.175 173.965,75.363 172.700 C 73.824 170.303,73.028 169.507,74.267 171.606 M149.437 174.500 C 150.249 175.765,150.988 176.800,151.079 176.800 C 151.347 176.800,149.900 174.482,148.890 173.294 C 148.379 172.692,148.625 173.235,149.437 174.500 M79.000 177.600 C 80.306 178.920,81.465 180.000,81.575 180.000 C 81.685 180.000,80.706 178.920,79.400 177.600 C 78.094 176.280,76.935 175.200,76.825 175.200 C 76.715 175.200,77.694 176.280,79.000 177.600 M207.000 178.486 C 206.879 178.989,206.829 189.300,206.889 201.400 L 207.000 223.400 211.200 223.400 L 215.400 223.400 215.510 217.100 C 215.638 209.773,215.606 209.804,218.800 214.000 C 220.140 215.760,221.326 217.200,221.436 217.200 C 221.698 217.200,216.770 210.684,216.233 210.321 C 215.415 209.767,215.212 211.103,215.206 217.100 L 215.200 223.200 211.197 223.200 L 207.193 223.200 207.297 200.700 L 207.400 178.200 211.300 178.086 L 215.200 177.971 215.206 189.886 C 215.212 201.914,215.324 203.072,216.411 202.385 C 216.907 202.071,216.890 202.011,216.306 202.006 C 215.665 202.000,215.604 201.075,215.506 189.900 L 215.400 177.800 211.311 177.686 C 207.341 177.576,207.216 177.599,207.000 178.486 M152.028 178.600 C 152.028 178.820,152.286 179.450,152.600 180.000 C 152.914 180.550,153.172 180.820,153.172 180.600 C 153.172 180.380,152.914 179.750,152.600 179.200 C 152.286 178.650,152.028 178.380,152.028 178.600 M182.515 179.896 C 183.788 179.976,185.768 179.975,186.915 179.894 C 188.062 179.814,187.020 179.749,184.600 179.750 C 182.180 179.751,181.242 179.816,182.515 179.896 M82.144 180.309 C 82.460 180.821,84.800 182.553,84.800 182.275 C 84.800 182.176,84.139 181.591,83.332 180.975 C 82.524 180.359,81.989 180.059,82.144 180.309 M177.800 180.400 C 177.296 180.617,177.222 180.744,177.600 180.744 C 177.930 180.744,178.560 180.589,179.000 180.400 C 179.504 180.183,179.578 180.056,179.200 180.056 C 178.870 180.056,178.240 180.211,177.800 180.400 M190.200 180.400 C 190.640 180.589,191.270 180.744,191.600 180.744 C 191.978 180.744,191.904 180.617,191.400 180.400 C 190.960 180.211,190.330 180.056,190.000 180.056 C 189.622 180.056,189.696 180.183,190.200 180.400 M175.100 181.429 C 173.549 182.270,173.725 182.561,175.300 181.759 C 176.808 180.993,177.075 180.794,176.567 180.816 C 176.365 180.825,175.705 181.101,175.100 181.429 M85.200 182.535 C 85.200 182.806,88.074 184.459,88.246 184.287 C 88.326 184.208,87.673 183.739,86.796 183.246 C 85.918 182.752,85.200 182.433,85.200 182.535 M171.781 184.100 L 170.200 185.800 171.900 184.219 C 173.481 182.748,173.784 182.400,173.481 182.400 C 173.416 182.400,172.651 183.165,171.781 184.100 M197.056 183.471 C 197.746 184.092,198.400 184.960,198.509 185.400 C 198.697 186.159,198.710 186.156,198.754 185.347 C 198.784 184.790,198.282 184.123,197.300 183.419 L 195.800 182.342 197.056 183.471 M304.000 183.600 C 302.643 183.886,302.637 183.895,303.800 183.907 C 304.460 183.915,305.450 183.776,306.000 183.600 C 307.312 183.180,305.996 183.180,304.000 183.600 M308.000 186.937 L 308.200 190.600 312.600 190.800 L 317.000 191.000 317.000 194.301 C 317.000 196.116,317.135 197.601,317.300 197.601 C 317.810 197.600,317.644 191.404,317.120 190.880 C 316.809 190.569,315.191 190.400,312.520 190.400 L 308.400 190.400 308.400 187.024 C 308.400 185.167,308.265 183.563,308.100 183.461 C 307.935 183.358,307.890 184.922,308.000 186.937 M299.949 184.700 C 299.472 185.309,299.478 185.340,300.000 184.943 C 300.330 184.692,300.960 184.398,301.400 184.289 C 302.160 184.103,302.157 184.090,301.349 184.046 C 300.881 184.021,300.251 184.315,299.949 184.700 M154.468 185.000 C 154.462 185.440,154.611 186.160,154.800 186.600 C 155.238 187.619,155.238 186.568,154.800 185.200 C 154.543 184.396,154.477 184.357,154.468 185.000 M90.400 185.366 C 90.950 185.660,91.850 186.012,92.400 186.149 C 92.950 186.286,92.680 186.052,91.800 185.629 C 89.990 184.758,88.868 184.548,90.400 185.366 M93.633 186.544 C 93.725 186.623,94.340 186.808,95.000 186.956 C 95.876 187.152,96.038 187.115,95.600 186.818 C 95.060 186.453,93.232 186.198,93.633 186.544 M196.975 187.868 C 196.359 188.676,196.059 189.211,196.309 189.056 C 196.821 188.740,198.553 186.400,198.275 186.400 C 198.176 186.400,197.591 187.061,196.975 187.868 M183.300 187.487 C 183.905 187.578,184.895 187.578,185.500 187.487 C 186.105 187.395,185.610 187.320,184.400 187.320 C 183.190 187.320,182.695 187.395,183.300 187.487 M155.280 188.600 C 155.268 189.260,155.403 190.610,155.580 191.600 C 155.816 192.928,155.905 193.085,155.920 192.200 C 155.932 191.540,155.797 190.190,155.620 189.200 C 155.384 187.872,155.295 187.715,155.280 188.600 M113.000 188.386 C 120.068 188.537,123.264 188.751,123.900 189.114 C 124.395 189.397,124.800 189.536,124.800 189.424 C 124.800 188.298,122.135 188.003,112.720 188.086 L 103.000 188.173 113.000 188.386 M190.433 188.916 C 190.525 188.980,191.320 189.533,192.200 190.145 L 193.800 191.258 192.415 190.029 C 191.653 189.353,190.858 188.800,190.648 188.800 C 190.438 188.800,190.342 188.852,190.433 188.916 M67.688 190.273 C 68.286 190.430,68.391 191.122,68.488 195.527 L 68.600 200.600 95.514 200.703 C 122.756 200.807,124.800 200.715,124.800 199.379 C 124.800 199.269,124.269 199.454,123.620 199.790 C 122.596 200.319,118.878 200.400,95.620 200.400 L 68.800 200.400 68.800 195.200 C 68.800 190.060,68.790 190.001,67.900 190.046 C 67.241 190.080,67.185 190.141,67.688 190.273 M250.300 190.293 C 251.235 190.377,252.765 190.377,253.700 190.293 C 254.635 190.209,253.870 190.140,252.000 190.140 C 250.130 190.140,249.365 190.209,250.300 190.293 M297.410 190.298 C 296.316 190.382,295.191 190.642,294.910 190.875 C 294.355 191.335,294.171 197.010,294.700 197.339 C 294.865 197.442,295.000 196.057,295.000 194.263 L 295.000 191.000 297.300 190.880 C 298.565 190.814,299.600 190.589,299.600 190.380 C 299.600 190.171,299.555 190.032,299.500 190.072 C 299.445 190.112,298.505 190.213,297.410 190.298 M225.471 190.743 C 225.071 190.901,226.570 190.957,228.804 190.867 C 233.630 190.674,234.212 190.969,232.801 192.897 C 232.213 193.701,232.115 193.983,232.545 193.633 C 233.704 192.692,234.119 191.625,233.579 190.974 C 233.067 190.357,226.897 190.181,225.471 190.743 M273.429 191.029 C 272.605 191.852,272.464 222.304,273.280 223.120 C 273.598 223.438,275.047 223.574,277.580 223.523 L 281.400 223.445 277.400 223.223 L 273.400 223.000 273.295 207.447 C 273.220 196.299,273.319 191.739,273.644 191.347 C 274.193 190.685,279.650 190.584,280.826 191.214 C 281.263 191.448,281.600 191.468,281.600 191.261 C 281.600 190.225,274.436 190.021,273.429 191.029 M286.600 190.800 C 286.096 191.017,286.022 191.144,286.400 191.144 C 286.730 191.144,287.360 190.989,287.800 190.800 C 288.304 190.583,288.378 190.456,288.000 190.456 C 287.670 190.456,287.040 190.611,286.600 190.800 M126.324 191.400 C 126.526 191.840,126.792 192.470,126.914 192.800 C 127.107 193.318,127.141 193.315,127.168 192.776 C 127.186 192.434,126.920 191.804,126.578 191.376 C 125.966 190.612,125.962 190.613,126.324 191.400 M168.493 192.000 C 168.493 192.770,168.575 193.085,168.676 192.700 C 168.776 192.315,168.776 191.685,168.676 191.300 C 168.575 190.915,168.493 191.230,168.493 192.000 M283.294 193.000 C 282.289 193.991,281.612 194.936,281.788 195.100 C 281.965 195.265,282.201 195.130,282.312 194.800 C 282.424 194.470,283.217 193.525,284.074 192.700 C 284.932 191.875,285.518 191.200,285.377 191.200 C 285.235 191.200,284.298 192.010,283.294 193.000 M293.693 192.400 C 293.693 193.170,293.775 193.485,293.876 193.100 C 293.976 192.715,293.976 192.085,293.876 191.700 C 293.775 191.315,293.693 191.630,293.693 192.400 M63.800 192.635 L 62.600 193.666 63.900 192.806 C 64.615 192.333,65.200 191.868,65.200 191.773 C 65.200 191.473,65.031 191.578,63.800 192.635 M241.093 193.014 C 240.272 193.572,239.600 194.115,239.600 194.220 C 239.600 194.325,240.320 193.935,241.200 193.353 C 242.597 192.428,243.070 192.000,242.693 192.000 C 242.634 192.000,241.914 192.456,241.093 193.014 M260.000 192.125 C 260.000 192.194,260.585 192.779,261.300 193.425 L 262.600 194.600 261.425 193.300 C 260.330 192.088,260.000 191.816,260.000 192.125 M221.027 196.100 C 219.986 197.475,219.703 197.970,220.397 197.200 C 221.845 195.593,223.334 193.600,223.086 193.600 C 222.994 193.600,222.067 194.725,221.027 196.100 M168.856 194.800 C 168.856 195.130,169.011 195.760,169.200 196.200 C 169.417 196.704,169.544 196.778,169.544 196.400 C 169.544 196.070,169.389 195.440,169.200 195.000 C 168.983 194.496,168.856 194.422,168.856 194.800 M231.144 195.100 C 229.993 196.489,229.506 197.200,229.704 197.200 C 229.814 197.200,230.386 196.570,230.973 195.800 C 232.063 194.371,232.195 193.832,231.144 195.100 M238.172 195.386 C 237.633 196.210,237.587 196.546,237.964 196.921 C 238.341 197.294,238.393 197.257,238.201 196.752 C 238.063 196.389,238.250 195.807,238.625 195.433 C 238.993 195.064,239.198 194.665,239.080 194.546 C 238.961 194.428,238.553 194.805,238.172 195.386 M293.056 195.284 C 292.921 195.788,292.827 196.560,292.846 197.000 C 292.865 197.440,293.045 197.098,293.246 196.240 C 293.636 194.578,293.470 193.740,293.056 195.284 M57.600 196.855 C 54.473 199.111,54.141 199.620,57.075 197.658 C 58.437 196.748,59.662 195.823,59.799 195.602 C 60.152 195.030,60.048 195.090,57.600 196.855 M155.701 197.400 C 155.705 198.280,155.787 198.593,155.883 198.095 C 155.979 197.598,155.975 196.878,155.875 196.495 C 155.775 196.113,155.696 196.520,155.701 197.400 M263.256 196.800 C 263.256 197.130,263.411 197.760,263.600 198.200 C 263.817 198.704,263.944 198.778,263.944 198.400 C 263.944 198.070,263.789 197.440,263.600 197.000 C 263.383 196.496,263.256 196.422,263.256 196.800 M185.400 197.181 C 186.168 197.529,188.310 197.756,187.967 197.453 C 187.875 197.372,187.080 197.196,186.200 197.062 C 185.085 196.893,184.842 196.929,185.400 197.181 M250.307 197.490 C 251.026 197.579,252.106 197.577,252.707 197.486 C 253.308 197.395,252.720 197.322,251.400 197.324 C 250.080 197.326,249.588 197.401,250.307 197.490 M189.000 198.000 C 189.440 198.189,190.160 198.338,190.600 198.332 C 191.243 198.323,191.204 198.257,190.400 198.000 C 189.032 197.562,187.981 197.562,189.000 198.000 M227.933 199.300 C 225.074 202.864,223.815 204.561,224.211 204.316 C 224.691 204.020,229.712 197.600,229.464 197.600 C 229.372 197.600,228.683 198.365,227.933 199.300 M246.300 198.229 C 245.695 198.557,245.200 198.914,245.200 199.023 C 245.200 199.132,245.695 198.971,246.300 198.665 C 246.905 198.360,247.670 198.009,248.000 197.886 C 248.533 197.688,248.533 197.661,248.000 197.648 C 247.670 197.639,246.905 197.901,246.300 198.229 M254.571 198.229 C 254.917 198.574,255.227 199.429,255.260 200.129 C 255.316 201.310,255.332 201.323,255.485 200.320 C 255.663 199.147,255.022 197.600,254.357 197.600 C 254.129 197.600,254.226 197.883,254.571 198.229 M296.500 197.887 C 297.105 197.978,298.095 197.978,298.700 197.887 C 299.305 197.795,298.810 197.720,297.600 197.720 C 296.390 197.720,295.895 197.795,296.500 197.887 M308.000 205.620 C 308.000 213.803,308.364 216.011,309.710 215.994 C 310.052 215.990,310.067 215.899,309.760 215.694 C 308.602 214.921,308.400 213.456,308.400 205.840 L 308.400 198.028 312.500 197.898 L 316.600 197.769 312.300 197.684 L 308.000 197.600 308.000 205.620 M289.200 198.815 C 290.850 198.996,292.328 199.019,292.484 198.868 C 292.640 198.716,291.290 198.568,289.484 198.539 L 286.200 198.486 289.200 198.815 M217.775 200.268 C 217.159 201.076,216.859 201.611,217.109 201.456 C 217.621 201.140,219.353 198.800,219.075 198.800 C 218.976 198.800,218.391 199.461,217.775 200.268 M52.000 200.842 C 48.860 203.135,48.531 203.650,51.522 201.590 C 53.666 200.114,54.806 199.148,54.324 199.218 C 54.256 199.228,53.210 199.959,52.000 200.842 M155.293 200.400 C 155.293 201.170,155.375 201.485,155.476 201.100 C 155.576 200.715,155.576 200.085,155.476 199.700 C 155.375 199.315,155.293 199.630,155.293 200.400 M196.200 201.030 C 196.860 201.629,197.894 202.857,198.498 203.759 C 199.102 204.662,199.597 205.261,199.598 205.091 C 199.602 204.387,197.495 201.677,196.293 200.841 L 195.000 199.942 196.200 201.030 M240.440 200.700 C 240.744 201.195,241.281 201.600,241.634 201.600 C 241.987 201.600,242.619 201.195,243.038 200.700 C 243.799 199.801,243.799 199.801,242.969 200.500 C 242.511 200.885,241.985 201.200,241.800 201.200 C 241.615 201.200,241.108 200.885,240.675 200.500 C 239.908 199.819,239.901 199.824,240.440 200.700 M264.087 208.020 C 263.992 216.541,264.064 216.839,266.180 216.747 C 267.391 216.695,267.389 216.693,266.000 216.447 L 264.600 216.200 264.387 208.200 L 264.174 200.200 264.087 208.020 M172.782 201.378 C 173.090 201.749,173.895 202.334,174.571 202.677 C 176.095 203.452,175.852 203.167,173.800 201.774 C 172.932 201.185,172.474 201.007,172.782 201.378 M46.400 204.842 C 43.260 207.135,42.931 207.650,45.922 205.590 C 48.066 204.114,49.206 203.148,48.724 203.218 C 48.656 203.228,47.610 203.959,46.400 204.842 M178.033 204.144 C 178.125 204.223,178.740 204.408,179.400 204.556 C 180.276 204.752,180.438 204.715,180.000 204.418 C 179.460 204.053,177.632 203.798,178.033 204.144 M245.600 204.400 C 244.796 204.657,244.757 204.723,245.400 204.732 C 245.840 204.738,246.560 204.589,247.000 204.400 C 248.019 203.962,246.968 203.962,245.600 204.400 M182.000 205.200 C 183.368 205.638,184.419 205.638,183.400 205.200 C 182.960 205.011,182.240 204.862,181.800 204.868 C 181.157 204.877,181.196 204.943,182.000 205.200 M223.467 205.067 C 222.931 205.603,223.222 206.695,224.100 207.438 L 225.000 208.200 224.250 207.313 C 223.810 206.793,223.588 206.090,223.712 205.613 C 223.939 204.746,223.892 204.641,223.467 205.067 M281.771 214.000 C 281.771 218.950,281.828 220.975,281.899 218.500 C 281.969 216.025,281.969 211.975,281.899 209.500 C 281.828 207.025,281.771 209.050,281.771 214.000 M188.661 207.080 C 189.355 207.426,190.151 208.134,190.429 208.654 C 190.707 209.174,191.009 209.524,191.100 209.434 C 191.695 208.838,188.880 206.333,187.720 206.426 C 187.544 206.440,187.968 206.734,188.661 207.080 M200.302 209.400 C 200.417 211.160,200.577 212.675,200.656 212.767 C 200.923 213.075,200.709 208.612,200.398 207.400 C 200.224 206.719,200.182 207.585,200.302 209.400 M239.047 208.001 C 238.251 208.882,237.600 209.728,237.600 209.881 C 237.600 210.035,237.735 209.989,237.901 209.780 C 238.067 209.571,238.822 208.725,239.580 207.900 C 240.337 207.075,240.853 206.400,240.725 206.400 C 240.597 206.400,239.842 207.121,239.047 208.001 M255.517 209.500 C 255.712 212.540,255.903 212.802,255.954 210.100 C 255.979 208.725,255.864 207.600,255.697 207.600 C 255.531 207.600,255.449 208.455,255.517 209.500 M225.986 210.180 C 226.659 211.158,227.401 212.077,227.634 212.221 C 227.868 212.365,227.399 211.565,226.592 210.442 C 224.790 207.934,224.293 207.719,225.986 210.180 M39.200 210.049 C 37.806 211.271,37.805 211.272,39.088 210.419 C 39.796 209.948,40.482 209.391,40.612 209.181 C 40.997 208.557,40.677 208.754,39.200 210.049 M250.200 209.219 C 249.642 209.471,249.885 209.507,251.000 209.338 C 251.880 209.204,252.675 209.028,252.767 208.947 C 253.110 208.644,250.968 208.871,250.200 209.219 M171.170 211.100 L 170.200 212.200 171.226 211.300 C 172.577 210.114,173.052 210.163,174.272 211.612 C 175.296 212.830,178.464 215.200,179.067 215.200 C 179.244 215.200,178.450 214.568,177.303 213.795 C 176.155 213.022,174.819 211.852,174.333 211.195 C 173.235 209.710,172.417 209.686,171.170 211.100 M237.050 211.650 C 236.744 213.179,236.789 215.876,237.140 217.124 C 237.283 217.632,237.400 216.327,237.400 214.224 C 237.400 209.938,237.397 209.915,237.050 211.650 M151.353 211.300 C 149.976 213.636,149.886 213.835,150.587 213.000 C 151.400 212.032,152.100 210.800,151.838 210.800 C 151.733 210.800,151.515 211.025,151.353 211.300 M168.829 213.891 C 166.957 216.162,168.188 218.835,172.065 220.917 C 173.349 221.607,173.362 221.607,172.404 220.917 C 168.015 217.757,167.324 216.275,169.170 213.978 C 169.867 213.110,170.352 212.400,170.248 212.400 C 170.144 212.400,169.505 213.071,168.829 213.891 M190.800 213.079 C 190.800 213.305,190.319 213.972,189.732 214.559 C 189.144 215.147,188.953 215.516,189.308 215.380 C 190.074 215.086,191.363 213.230,191.032 212.899 C 190.904 212.771,190.800 212.852,190.800 213.079 M299.714 214.600 C 299.717 215.700,299.795 216.103,299.887 215.495 C 299.979 214.886,299.977 213.986,299.882 213.495 C 299.787 213.003,299.711 213.500,299.714 214.600 M156.900 213.476 C 157.285 213.576,157.915 213.576,158.300 213.476 C 158.685 213.375,158.370 213.293,157.600 213.293 C 156.830 213.293,156.515 213.375,156.900 213.476 M154.580 214.052 C 154.130 214.271,153.521 214.844,153.228 215.325 C 152.737 216.131,152.785 216.122,153.847 215.206 C 154.481 214.659,155.171 214.074,155.380 213.906 C 155.875 213.507,155.598 213.558,154.580 214.052 M148.468 215.700 C 147.825 216.635,146.384 218.255,145.266 219.300 C 144.149 220.345,143.367 221.200,143.530 221.200 C 143.951 221.200,148.109 216.848,149.166 215.300 C 149.655 214.585,149.961 214.000,149.846 214.000 C 149.732 214.000,149.112 214.765,148.468 215.700 M245.654 214.664 C 245.561 216.146,247.735 217.610,249.931 217.544 L 251.800 217.487 249.733 217.236 C 247.524 216.967,246.149 216.048,245.877 214.658 L 245.709 213.800 245.654 214.664 M161.597 214.996 C 161.869 215.324,162.333 216.269,162.628 217.096 C 162.947 217.990,163.171 218.276,163.181 217.800 C 163.197 216.979,161.814 214.400,161.357 214.400 C 161.217 214.400,161.325 214.668,161.597 214.996 M180.000 215.582 C 180.330 215.805,180.945 215.991,181.367 215.994 C 182.390 216.002,182.071 215.773,180.600 215.444 C 179.724 215.248,179.562 215.285,180.000 215.582 M32.800 215.711 C 32.800 215.787,33.385 216.278,34.100 216.801 C 34.904 217.390,35.184 217.487,34.833 217.055 C 34.300 216.399,32.800 215.407,32.800 215.711 M183.900 216.282 C 184.395 216.378,185.205 216.378,185.700 216.282 C 186.195 216.187,185.790 216.109,184.800 216.109 C 183.810 216.109,183.405 216.187,183.900 216.282 M152.164 217.403 C 151.829 218.737,152.280 221.002,153.000 221.600 C 153.467 221.988,153.456 221.834,152.942 220.803 C 152.532 219.981,152.379 218.969,152.514 217.963 C 152.750 216.205,152.546 215.879,152.164 217.403 M198.203 218.300 C 197.824 218.905,196.948 219.918,196.257 220.552 L 195.000 221.703 196.322 220.752 C 197.487 219.913,199.598 217.200,199.085 217.200 C 198.979 217.200,198.582 217.695,198.203 218.300 M232.386 218.980 C 233.059 219.958,233.801 220.877,234.034 221.021 C 234.268 221.165,233.799 220.365,232.992 219.242 C 231.190 216.734,230.693 216.519,232.386 218.980 M222.391 218.788 C 222.857 219.441,223.442 220.102,223.691 220.256 C 223.941 220.411,223.641 219.876,223.025 219.068 C 221.688 217.315,221.184 217.092,222.391 218.788 M38.400 219.672 C 39.329 220.592,43.396 223.441,43.103 222.967 C 42.960 222.736,41.708 221.766,40.322 220.812 C 38.935 219.858,38.070 219.345,38.400 219.672 M254.306 221.252 C 253.265 222.335,252.725 223.054,253.106 222.850 C 253.925 222.411,256.977 219.181,256.516 219.241 C 256.342 219.264,255.348 220.168,254.306 221.252 M268.109 220.800 C 268.109 221.790,268.187 222.195,268.282 221.700 C 268.378 221.205,268.378 220.395,268.282 219.900 C 268.187 219.405,268.109 219.810,268.109 220.800 M238.400 220.125 C 238.400 220.194,238.985 220.779,239.700 221.425 L 241.000 222.600 239.825 221.300 C 238.730 220.088,238.400 219.816,238.400 220.125 M256.800 220.363 C 256.800 220.728,259.554 223.399,259.698 223.173 C 259.758 223.078,259.131 222.344,258.304 221.541 C 257.477 220.739,256.800 220.209,256.800 220.363 M302.199 221.155 C 302.639 221.665,303.539 222.336,304.199 222.647 C 304.908 222.980,305.091 223.004,304.646 222.706 C 304.232 222.428,303.332 221.756,302.646 221.214 C 301.443 220.262,301.427 220.260,302.199 221.155 M224.800 222.000 C 225.270 222.660,225.744 223.200,225.854 223.200 C 225.964 223.200,225.670 222.660,225.200 222.000 C 224.730 221.340,224.256 220.800,224.146 220.800 C 224.036 220.800,224.330 221.340,224.800 222.000 M140.687 222.968 C 138.326 224.602,137.764 225.175,139.506 224.172 C 140.850 223.399,143.156 221.623,142.800 221.636 C 142.690 221.641,141.739 222.240,140.687 222.968 M174.400 222.166 C 174.950 222.460,175.850 222.812,176.400 222.949 C 176.950 223.086,176.680 222.852,175.800 222.429 C 173.990 221.558,172.868 221.348,174.400 222.166 M241.415 222.824 C 241.647 223.199,244.385 224.148,244.605 223.929 C 244.688 223.846,243.960 223.492,242.987 223.142 C 242.014 222.792,241.307 222.649,241.415 222.824 M156.329 223.751 C 157.094 223.971,158.106 223.971,158.871 223.751 C 159.968 223.437,159.793 223.387,157.600 223.387 C 155.407 223.387,155.232 223.437,156.329 223.751 M178.600 223.600 C 180.292 224.031,181.744 224.031,180.400 223.600 C 179.850 223.424,178.950 223.283,178.400 223.287 C 177.502 223.294,177.522 223.326,178.600 223.600 M228.300 223.495 C 229.455 223.576,231.345 223.576,232.500 223.495 C 233.655 223.414,232.710 223.348,230.400 223.348 C 228.090 223.348,227.145 223.414,228.300 223.495 M261.900 223.753 C 262.909 223.967,264.291 223.967,265.300 223.753 C 266.804 223.434,266.609 223.393,263.600 223.393 C 260.591 223.393,260.396 223.434,261.900 223.753 M306.200 223.600 C 306.640 223.789,307.270 223.944,307.600 223.944 C 307.978 223.944,307.904 223.817,307.400 223.600 C 306.960 223.411,306.330 223.256,306.000 223.256 C 305.622 223.256,305.696 223.383,306.200 223.600 M313.800 223.600 C 313.296 223.817,313.222 223.944,313.600 223.944 C 313.930 223.944,314.560 223.789,315.000 223.600 C 315.504 223.383,315.578 223.256,315.200 223.256 C 314.870 223.256,314.240 223.411,313.800 223.600 M183.507 224.290 C 184.226 224.379,185.306 224.377,185.907 224.286 C 186.508 224.195,185.920 224.122,184.600 224.124 C 183.280 224.126,182.788 224.201,183.507 224.290 M246.300 224.282 C 246.795 224.378,247.605 224.378,248.100 224.282 C 248.595 224.187,248.190 224.109,247.200 224.109 C 246.210 224.109,245.805 224.187,246.300 224.282 M309.905 224.283 C 310.402 224.379,311.122 224.375,311.505 224.275 C 311.887 224.175,311.480 224.096,310.600 224.101 C 309.720 224.105,309.407 224.187,309.905 224.283 M46.000 224.946 C 46.000 225.056,46.540 225.530,47.200 226.000 C 47.860 226.470,48.400 226.764,48.400 226.654 C 48.400 226.544,47.860 226.070,47.200 225.600 C 46.540 225.130,46.000 224.836,46.000 224.946 M128.200 228.419 C 127.642 228.671,127.885 228.707,129.000 228.538 C 129.880 228.404,130.675 228.228,130.767 228.147 C 131.110 227.844,128.968 228.071,128.200 228.419 M51.600 228.954 C 51.600 229.055,52.782 229.965,54.227 230.975 C 55.672 231.985,56.741 232.628,56.602 232.404 C 56.308 231.928,51.600 228.681,51.600 228.954 M125.300 229.076 C 125.685 229.176,126.315 229.176,126.700 229.076 C 127.085 228.975,126.770 228.893,126.000 228.893 C 125.230 228.893,124.915 228.975,125.300 229.076 M68.880 229.680 C 68.548 230.012,68.425 231.711,68.482 235.180 L 68.563 240.200 68.782 235.000 L 69.000 229.800 96.800 229.596 L 124.600 229.392 96.980 229.296 C 75.923 229.223,69.246 229.314,68.880 229.680 M60.000 234.872 C 60.929 235.792,64.996 238.641,64.703 238.167 C 64.560 237.936,63.308 236.966,61.922 236.012 C 60.535 235.058,59.670 234.545,60.000 234.872 " stroke="none" fill="#545454" fill-rule="evenodd"></path><path id="path4" d="M112.800 146.692 C 137.143 146.968,156.707 146.972,156.538 146.700 C 156.436 146.535,144.438 146.442,129.876 146.492 C 115.314 146.543,107.630 146.633,112.800 146.692 M69.331 152.600 C 69.333 154.140,69.405 154.721,69.492 153.891 C 69.579 153.061,69.577 151.801,69.489 151.091 C 69.400 150.381,69.329 151.060,69.331 152.600 M299.731 187.800 C 299.733 189.340,299.805 189.921,299.892 189.091 C 299.979 188.261,299.977 187.001,299.889 186.291 C 299.800 185.581,299.729 186.260,299.731 187.800 M288.900 190.676 C 289.285 190.776,289.915 190.776,290.300 190.676 C 290.685 190.575,290.370 190.493,289.600 190.493 C 288.830 190.493,288.515 190.575,288.900 190.676 M308.318 190.875 C 308.473 191.026,310.527 191.206,312.882 191.275 C 315.237 191.344,317.037 191.276,316.882 191.125 C 316.727 190.974,314.673 190.794,312.318 190.725 C 309.963 190.656,308.163 190.724,308.318 190.875 M227.700 191.094 C 228.745 191.176,230.455 191.176,231.500 191.094 C 232.545 191.012,231.690 190.944,229.600 190.944 C 227.510 190.944,226.655 191.012,227.700 191.094 M275.500 191.093 C 276.435 191.177,277.965 191.177,278.900 191.093 C 279.835 191.009,279.070 190.940,277.200 190.940 C 275.330 190.940,274.565 191.009,275.500 191.093 M295.052 191.116 C 294.944 191.290,295.518 191.370,296.328 191.293 C 298.802 191.059,299.093 190.895,297.124 190.846 C 296.092 190.821,295.159 190.942,295.052 191.116 M273.382 207.200 C 273.382 215.890,273.435 219.445,273.500 215.100 C 273.564 210.755,273.564 203.645,273.500 199.300 C 273.435 194.955,273.382 198.510,273.382 207.200 M155.701 194.600 C 155.705 195.480,155.787 195.793,155.883 195.295 C 155.979 194.798,155.975 194.078,155.875 193.695 C 155.775 193.313,155.696 193.720,155.701 194.600 M299.767 205.400 C 299.767 209.580,299.826 211.236,299.898 209.079 C 299.971 206.923,299.970 203.503,299.898 201.479 C 299.825 199.456,299.766 201.220,299.767 205.400 " stroke="none" fill="#747474" fill-rule="evenodd"></path></g></svg>